<?xml version="1.0" encoding="utf-8" standalone="no"?>
<!DOCTYPE svg PUBLIC "-//W3C//DTD SVG 1.1//EN"
  "http://www.w3.org/Graphics/SVG/1.1/DTD/svg11.dtd">
<svg xmlns:xlink="http://www.w3.org/1999/xlink" width="726.94375pt" height="392.514375pt" viewBox="0 0 726.94375 392.514375" xmlns="http://www.w3.org/2000/svg" version="1.1">
 <metadata>
  <rdf:RDF xmlns:dc="http://purl.org/dc/elements/1.1/" xmlns:cc="http://creativecommons.org/ns#" xmlns:rdf="http://www.w3.org/1999/02/22-rdf-syntax-ns#">
   <cc:Work>
    <dc:type rdf:resource="http://purl.org/dc/dcmitype/StillImage"/>
    <dc:date>2026-06-08T23:26:38.173597</dc:date>
    <dc:format>image/svg+xml</dc:format>
    <dc:creator>
     <cc:Agent>
      <dc:title>Matplotlib v3.10.9, https://matplotlib.org/</dc:title>
     </cc:Agent>
    </dc:creator>
   </cc:Work>
  </rdf:RDF>
 </metadata>
 <defs>
  <style type="text/css">*{stroke-linejoin: round; stroke-linecap: butt}</style>
 </defs>
 <g id="figure_1">
  <g id="patch_1">
   <path d="M 0 392.514375 
L 726.94375 392.514375 
L 726.94375 0 
L 0 0 
z
" style="fill: #ffffff"/>
  </g>
  <g id="axes_1">
   <g id="patch_2">
    <path d="M 50.14375 354.958125 
L 719.74375 354.958125 
L 719.74375 22.318125 
L 50.14375 22.318125 
z
" style="fill: #ffffff"/>
   </g>
   <g id="patch_3">
    <path d="M 193.212561 354.958125 
L 201.76592 354.958125 
L 201.76592 341.733452 
L 193.212561 341.733452 
z
" clip-path="url(#p99cbd9f01b)" style="fill: #4682b4; opacity: 0.4"/>
   </g>
   <g id="patch_4">
    <path d="M 201.76592 354.958125 
L 210.319279 354.958125 
L 210.319279 244.423546 
L 201.76592 244.423546 
z
" clip-path="url(#p99cbd9f01b)" style="fill: #4682b4; opacity: 0.4"/>
   </g>
   <g id="patch_5">
    <path d="M 210.319279 354.958125 
L 218.872638 354.958125 
L 218.872638 171.194387 
L 210.319279 171.194387 
z
" clip-path="url(#p99cbd9f01b)" style="fill: #4682b4; opacity: 0.4"/>
   </g>
   <g id="patch_6">
    <path d="M 218.872638 354.958125 
L 227.425997 354.958125 
L 227.425997 132.507284 
L 218.872638 132.507284 
z
" clip-path="url(#p99cbd9f01b)" style="fill: #4682b4; opacity: 0.4"/>
   </g>
   <g id="patch_7">
    <path d="M 227.425997 354.958125 
L 235.979356 354.958125 
L 235.979356 120.861676 
L 227.425997 120.861676 
z
" clip-path="url(#p99cbd9f01b)" style="fill: #4682b4; opacity: 0.4"/>
   </g>
   <g id="patch_8">
    <path d="M 235.979356 354.958125 
L 244.532715 354.958125 
L 244.532715 107.044854 
L 235.979356 107.044854 
z
" clip-path="url(#p99cbd9f01b)" style="fill: #4682b4; opacity: 0.4"/>
   </g>
   <g id="patch_9">
    <path d="M 244.532715 354.958125 
L 253.086074 354.958125 
L 253.086074 63.423172 
L 244.532715 63.423172 
z
" clip-path="url(#p99cbd9f01b)" style="fill: #4682b4; opacity: 0.4"/>
   </g>
   <g id="patch_10">
    <path d="M 253.086074 354.958125 
L 261.639433 354.958125 
L 261.639433 76.845228 
L 253.086074 76.845228 
z
" clip-path="url(#p99cbd9f01b)" style="fill: #4682b4; opacity: 0.4"/>
   </g>
   <g id="patch_11">
    <path d="M 261.639433 354.958125 
L 270.192792 354.958125 
L 270.192792 38.158125 
L 261.639433 38.158125 
z
" clip-path="url(#p99cbd9f01b)" style="fill: #4682b4; opacity: 0.4"/>
   </g>
   <g id="patch_12">
    <path d="M 270.192792 354.958125 
L 278.746151 354.958125 
L 278.746151 79.608592 
L 270.192792 79.608592 
z
" clip-path="url(#p99cbd9f01b)" style="fill: #4682b4; opacity: 0.4"/>
   </g>
   <g id="patch_13">
    <path d="M 278.746151 354.958125 
L 287.29951 354.958125 
L 287.29951 114.742798 
L 278.746151 114.742798 
z
" clip-path="url(#p99cbd9f01b)" style="fill: #4682b4; opacity: 0.4"/>
   </g>
   <g id="patch_14">
    <path d="M 287.29951 354.958125 
L 295.85287 354.958125 
L 295.85287 126.388405 
L 287.29951 126.388405 
z
" clip-path="url(#p99cbd9f01b)" style="fill: #4682b4; opacity: 0.4"/>
   </g>
   <g id="patch_15">
    <path d="M 295.85287 354.958125 
L 304.406229 354.958125 
L 304.406229 128.757004 
L 295.85287 128.757004 
z
" clip-path="url(#p99cbd9f01b)" style="fill: #4682b4; opacity: 0.4"/>
   </g>
   <g id="patch_16">
    <path d="M 304.406229 354.958125 
L 312.959588 354.958125 
L 312.959588 125.598873 
L 304.406229 125.598873 
z
" clip-path="url(#p99cbd9f01b)" style="fill: #4682b4; opacity: 0.4"/>
   </g>
   <g id="patch_17">
    <path d="M 312.959588 354.958125 
L 321.512947 354.958125 
L 321.512947 135.270648 
L 312.959588 135.270648 
z
" clip-path="url(#p99cbd9f01b)" style="fill: #4682b4; opacity: 0.4"/>
   </g>
   <g id="patch_18">
    <path d="M 321.512947 354.958125 
L 330.066306 354.958125 
L 330.066306 136.257564 
L 321.512947 136.257564 
z
" clip-path="url(#p99cbd9f01b)" style="fill: #4682b4; opacity: 0.4"/>
   </g>
   <g id="patch_19">
    <path d="M 330.066306 354.958125 
L 338.619665 354.958125 
L 338.619665 149.482237 
L 330.066306 149.482237 
z
" clip-path="url(#p99cbd9f01b)" style="fill: #4682b4; opacity: 0.4"/>
   </g>
   <g id="patch_20">
    <path d="M 338.619665 354.958125 
L 347.173024 354.958125 
L 347.173024 168.628405 
L 338.619665 168.628405 
z
" clip-path="url(#p99cbd9f01b)" style="fill: #4682b4; opacity: 0.4"/>
   </g>
   <g id="patch_21">
    <path d="M 347.173024 354.958125 
L 355.726383 354.958125 
L 355.726383 166.654574 
L 347.173024 166.654574 
z
" clip-path="url(#p99cbd9f01b)" style="fill: #4682b4; opacity: 0.4"/>
   </g>
   <g id="patch_22">
    <path d="M 355.726383 354.958125 
L 364.279742 354.958125 
L 364.279742 183.234761 
L 355.726383 183.234761 
z
" clip-path="url(#p99cbd9f01b)" style="fill: #4682b4; opacity: 0.4"/>
   </g>
   <g id="patch_23">
    <path d="M 364.279742 354.958125 
L 372.833101 354.958125 
L 372.833101 192.314387 
L 364.279742 192.314387 
z
" clip-path="url(#p99cbd9f01b)" style="fill: #4682b4; opacity: 0.4"/>
   </g>
   <g id="patch_24">
    <path d="M 372.833101 354.958125 
L 381.38646 354.958125 
L 381.38646 198.235882 
L 372.833101 198.235882 
z
" clip-path="url(#p99cbd9f01b)" style="fill: #4682b4; opacity: 0.4"/>
   </g>
   <g id="patch_25">
    <path d="M 381.38646 354.958125 
L 389.939819 354.958125 
L 389.939819 222.711396 
L 381.38646 222.711396 
z
" clip-path="url(#p99cbd9f01b)" style="fill: #4682b4; opacity: 0.4"/>
   </g>
   <g id="patch_26">
    <path d="M 389.939819 354.958125 
L 398.493178 354.958125 
L 398.493178 216.789901 
L 389.939819 216.789901 
z
" clip-path="url(#p99cbd9f01b)" style="fill: #4682b4; opacity: 0.4"/>
   </g>
   <g id="patch_27">
    <path d="M 398.493178 354.958125 
L 407.046537 354.958125 
L 407.046537 233.172704 
L 398.493178 233.172704 
z
" clip-path="url(#p99cbd9f01b)" style="fill: #4682b4; opacity: 0.4"/>
   </g>
   <g id="patch_28">
    <path d="M 407.046537 354.958125 
L 415.599896 354.958125 
L 415.599896 242.449714 
L 407.046537 242.449714 
z
" clip-path="url(#p99cbd9f01b)" style="fill: #4682b4; opacity: 0.4"/>
   </g>
   <g id="patch_29">
    <path d="M 415.599896 354.958125 
L 424.153255 354.958125 
L 424.153255 256.069153 
L 415.599896 256.069153 
z
" clip-path="url(#p99cbd9f01b)" style="fill: #4682b4; opacity: 0.4"/>
   </g>
   <g id="patch_30">
    <path d="M 424.153255 354.958125 
L 432.706615 354.958125 
L 432.706615 262.977564 
L 424.153255 262.977564 
z
" clip-path="url(#p99cbd9f01b)" style="fill: #4682b4; opacity: 0.4"/>
   </g>
   <g id="patch_31">
    <path d="M 432.706615 354.958125 
L 441.259974 354.958125 
L 441.259974 265.740929 
L 432.706615 265.740929 
z
" clip-path="url(#p99cbd9f01b)" style="fill: #4682b4; opacity: 0.4"/>
   </g>
   <g id="patch_32">
    <path d="M 441.259974 354.958125 
L 449.813333 354.958125 
L 449.813333 273.833639 
L 441.259974 273.833639 
z
" clip-path="url(#p99cbd9f01b)" style="fill: #4682b4; opacity: 0.4"/>
   </g>
   <g id="patch_33">
    <path d="M 449.813333 354.958125 
L 458.366692 354.958125 
L 458.366692 287.847845 
L 449.813333 287.847845 
z
" clip-path="url(#p99cbd9f01b)" style="fill: #4682b4; opacity: 0.4"/>
   </g>
   <g id="patch_34">
    <path d="M 458.366692 354.958125 
L 466.920051 354.958125 
L 466.920051 294.953639 
L 458.366692 294.953639 
z
" clip-path="url(#p99cbd9f01b)" style="fill: #4682b4; opacity: 0.4"/>
   </g>
   <g id="patch_35">
    <path d="M 466.920051 354.958125 
L 475.47341 354.958125 
L 475.47341 290.808592 
L 466.920051 290.808592 
z
" clip-path="url(#p99cbd9f01b)" style="fill: #4682b4; opacity: 0.4"/>
   </g>
   <g id="patch_36">
    <path d="M 475.47341 354.958125 
L 484.026769 354.958125 
L 484.026769 306.20448 
L 475.47341 306.20448 
z
" clip-path="url(#p99cbd9f01b)" style="fill: #4682b4; opacity: 0.4"/>
   </g>
   <g id="patch_37">
    <path d="M 484.026769 354.958125 
L 492.580128 354.958125 
L 492.580128 313.705041 
L 484.026769 313.705041 
z
" clip-path="url(#p99cbd9f01b)" style="fill: #4682b4; opacity: 0.4"/>
   </g>
   <g id="patch_38">
    <path d="M 492.580128 354.958125 
L 501.133487 354.958125 
L 501.133487 319.823919 
L 492.580128 319.823919 
z
" clip-path="url(#p99cbd9f01b)" style="fill: #4682b4; opacity: 0.4"/>
   </g>
   <g id="patch_39">
    <path d="M 501.133487 354.958125 
L 509.686846 354.958125 
L 509.686846 330.877377 
L 501.133487 330.877377 
z
" clip-path="url(#p99cbd9f01b)" style="fill: #4682b4; opacity: 0.4"/>
   </g>
   <g id="patch_40">
    <path d="M 509.686846 354.958125 
L 518.240205 354.958125 
L 518.240205 330.877377 
L 509.686846 330.877377 
z
" clip-path="url(#p99cbd9f01b)" style="fill: #4682b4; opacity: 0.4"/>
   </g>
   <g id="patch_41">
    <path d="M 518.240205 354.958125 
L 526.793564 354.958125 
L 526.793564 338.575321 
L 518.240205 338.575321 
z
" clip-path="url(#p99cbd9f01b)" style="fill: #4682b4; opacity: 0.4"/>
   </g>
   <g id="patch_42">
    <path d="M 526.793564 354.958125 
L 535.346923 354.958125 
L 535.346923 341.733452 
L 526.793564 341.733452 
z
" clip-path="url(#p99cbd9f01b)" style="fill: #4682b4; opacity: 0.4"/>
   </g>
   <g id="patch_43">
    <path d="M 535.346923 354.958125 
L 543.900282 354.958125 
L 543.900282 343.904667 
L 535.346923 343.904667 
z
" clip-path="url(#p99cbd9f01b)" style="fill: #4682b4; opacity: 0.4"/>
   </g>
   <g id="patch_44">
    <path d="M 543.900282 354.958125 
L 552.453641 354.958125 
L 552.453641 346.273265 
L 543.900282 346.273265 
z
" clip-path="url(#p99cbd9f01b)" style="fill: #4682b4; opacity: 0.4"/>
   </g>
   <g id="patch_45">
    <path d="M 552.453641 354.958125 
L 561.007 354.958125 
L 561.007 348.839246 
L 552.453641 348.839246 
z
" clip-path="url(#p99cbd9f01b)" style="fill: #4682b4; opacity: 0.4"/>
   </g>
   <g id="patch_46">
    <path d="M 561.007 354.958125 
L 569.56036 354.958125 
L 569.56036 348.839246 
L 561.007 348.839246 
z
" clip-path="url(#p99cbd9f01b)" style="fill: #4682b4; opacity: 0.4"/>
   </g>
   <g id="patch_47">
    <path d="M 569.56036 354.958125 
L 578.113719 354.958125 
L 578.113719 350.220929 
L 569.56036 350.220929 
z
" clip-path="url(#p99cbd9f01b)" style="fill: #4682b4; opacity: 0.4"/>
   </g>
   <g id="patch_48">
    <path d="M 578.113719 354.958125 
L 586.667078 354.958125 
L 586.667078 350.023546 
L 578.113719 350.023546 
z
" clip-path="url(#p99cbd9f01b)" style="fill: #4682b4; opacity: 0.4"/>
   </g>
   <g id="patch_49">
    <path d="M 586.667078 354.958125 
L 595.220437 354.958125 
L 595.220437 351.799994 
L 586.667078 351.799994 
z
" clip-path="url(#p99cbd9f01b)" style="fill: #4682b4; opacity: 0.4"/>
   </g>
   <g id="patch_50">
    <path d="M 595.220437 354.958125 
L 603.773796 354.958125 
L 603.773796 353.971209 
L 595.220437 353.971209 
z
" clip-path="url(#p99cbd9f01b)" style="fill: #4682b4; opacity: 0.4"/>
   </g>
   <g id="patch_51">
    <path d="M 603.773796 354.958125 
L 612.327155 354.958125 
L 612.327155 351.997377 
L 603.773796 351.997377 
z
" clip-path="url(#p99cbd9f01b)" style="fill: #4682b4; opacity: 0.4"/>
   </g>
   <g id="patch_52">
    <path d="M 612.327155 354.958125 
L 620.880514 354.958125 
L 620.880514 352.984293 
L 612.327155 352.984293 
z
" clip-path="url(#p99cbd9f01b)" style="fill: #4682b4; opacity: 0.4"/>
   </g>
   <g id="patch_53">
    <path d="M 620.880514 354.958125 
L 629.433873 354.958125 
L 629.433873 354.365975 
L 620.880514 354.365975 
z
" clip-path="url(#p99cbd9f01b)" style="fill: #4682b4; opacity: 0.4"/>
   </g>
   <g id="patch_54">
    <path d="M 629.433873 354.958125 
L 637.987232 354.958125 
L 637.987232 354.365975 
L 629.433873 354.365975 
z
" clip-path="url(#p99cbd9f01b)" style="fill: #4682b4; opacity: 0.4"/>
   </g>
   <g id="patch_55">
    <path d="M 637.987232 354.958125 
L 646.540591 354.958125 
L 646.540591 354.168592 
L 637.987232 354.168592 
z
" clip-path="url(#p99cbd9f01b)" style="fill: #4682b4; opacity: 0.4"/>
   </g>
   <g id="patch_56">
    <path d="M 646.540591 354.958125 
L 655.09395 354.958125 
L 655.09395 354.760742 
L 646.540591 354.760742 
z
" clip-path="url(#p99cbd9f01b)" style="fill: #4682b4; opacity: 0.4"/>
   </g>
   <g id="patch_57">
    <path d="M 655.09395 354.958125 
L 663.647309 354.958125 
L 663.647309 354.365975 
L 655.09395 354.365975 
z
" clip-path="url(#p99cbd9f01b)" style="fill: #4682b4; opacity: 0.4"/>
   </g>
   <g id="patch_58">
    <path d="M 663.647309 354.958125 
L 672.200668 354.958125 
L 672.200668 354.958125 
L 663.647309 354.958125 
z
" clip-path="url(#p99cbd9f01b)" style="fill: #4682b4; opacity: 0.4"/>
   </g>
   <g id="patch_59">
    <path d="M 672.200668 354.958125 
L 680.754027 354.958125 
L 680.754027 354.958125 
L 672.200668 354.958125 
z
" clip-path="url(#p99cbd9f01b)" style="fill: #4682b4; opacity: 0.4"/>
   </g>
   <g id="patch_60">
    <path d="M 680.754027 354.958125 
L 689.307386 354.958125 
L 689.307386 354.760742 
L 680.754027 354.760742 
z
" clip-path="url(#p99cbd9f01b)" style="fill: #4682b4; opacity: 0.4"/>
   </g>
   <g id="matplotlib.axis_1">
    <g id="xtick_1">
     <g id="line2d_1">
      <defs>
       <path id="m4fbd88bfb1" d="M 0 0 
L 0 3.5 
" style="stroke: #000000; stroke-width: 0.8"/>
      </defs>
      <g>
       <use xlink:href="#m4fbd88bfb1" x="99.125611" y="354.958125" style="stroke: #000000; stroke-width: 0.8"/>
      </g>
     </g>
     <g id="text_1">
      <!-- 10 -->
      <g transform="translate(92.763111 369.556562) scale(0.1 -0.1)">
       <defs>
        <path id="DejaVuSans-31" d="M 794 531 
L 1825 531 
L 1825 4091 
L 703 3866 
L 703 4441 
L 1819 4666 
L 2450 4666 
L 2450 531 
L 3481 531 
L 3481 0 
L 794 0 
L 794 531 
z
" transform="scale(0.015625)"/>
        <path id="DejaVuSans-30" d="M 2034 4250 
Q 1547 4250 1301 3770 
Q 1056 3291 1056 2328 
Q 1056 1369 1301 889 
Q 1547 409 2034 409 
Q 2525 409 2770 889 
Q 3016 1369 3016 2328 
Q 3016 3291 2770 3770 
Q 2525 4250 2034 4250 
z
M 2034 4750 
Q 2819 4750 3233 4129 
Q 3647 3509 3647 2328 
Q 3647 1150 3233 529 
Q 2819 -91 2034 -91 
Q 1250 -91 836 529 
Q 422 1150 422 2328 
Q 422 3509 836 4129 
Q 1250 4750 2034 4750 
z
" transform="scale(0.015625)"/>
       </defs>
       <use xlink:href="#DejaVuSans-31"/>
       <use xlink:href="#DejaVuSans-30" transform="translate(63.623047 0)"/>
      </g>
     </g>
    </g>
    <g id="xtick_2">
     <g id="line2d_2">
      <g>
       <use xlink:href="#m4fbd88bfb1" x="184.659202" y="354.958125" style="stroke: #000000; stroke-width: 0.8"/>
      </g>
     </g>
     <g id="text_2">
      <!-- 20 -->
      <g transform="translate(178.296702 369.556562) scale(0.1 -0.1)">
       <defs>
        <path id="DejaVuSans-32" d="M 1228 531 
L 3431 531 
L 3431 0 
L 469 0 
L 469 531 
Q 828 903 1448 1529 
Q 2069 2156 2228 2338 
Q 2531 2678 2651 2914 
Q 2772 3150 2772 3378 
Q 2772 3750 2511 3984 
Q 2250 4219 1831 4219 
Q 1534 4219 1204 4116 
Q 875 4013 500 3803 
L 500 4441 
Q 881 4594 1212 4672 
Q 1544 4750 1819 4750 
Q 2544 4750 2975 4387 
Q 3406 4025 3406 3419 
Q 3406 3131 3298 2873 
Q 3191 2616 2906 2266 
Q 2828 2175 2409 1742 
Q 1991 1309 1228 531 
z
" transform="scale(0.015625)"/>
       </defs>
       <use xlink:href="#DejaVuSans-32"/>
       <use xlink:href="#DejaVuSans-30" transform="translate(63.623047 0)"/>
      </g>
     </g>
    </g>
    <g id="xtick_3">
     <g id="line2d_3">
      <g>
       <use xlink:href="#m4fbd88bfb1" x="270.192792" y="354.958125" style="stroke: #000000; stroke-width: 0.8"/>
      </g>
     </g>
     <g id="text_3">
      <!-- 30 -->
      <g transform="translate(263.830292 369.556562) scale(0.1 -0.1)">
       <defs>
        <path id="DejaVuSans-33" d="M 2597 2516 
Q 3050 2419 3304 2112 
Q 3559 1806 3559 1356 
Q 3559 666 3084 287 
Q 2609 -91 1734 -91 
Q 1441 -91 1130 -33 
Q 819 25 488 141 
L 488 750 
Q 750 597 1062 519 
Q 1375 441 1716 441 
Q 2309 441 2620 675 
Q 2931 909 2931 1356 
Q 2931 1769 2642 2001 
Q 2353 2234 1838 2234 
L 1294 2234 
L 1294 2753 
L 1863 2753 
Q 2328 2753 2575 2939 
Q 2822 3125 2822 3475 
Q 2822 3834 2567 4026 
Q 2313 4219 1838 4219 
Q 1578 4219 1281 4162 
Q 984 4106 628 3988 
L 628 4550 
Q 988 4650 1302 4700 
Q 1616 4750 1894 4750 
Q 2613 4750 3031 4423 
Q 3450 4097 3450 3541 
Q 3450 3153 3228 2886 
Q 3006 2619 2597 2516 
z
" transform="scale(0.015625)"/>
       </defs>
       <use xlink:href="#DejaVuSans-33"/>
       <use xlink:href="#DejaVuSans-30" transform="translate(63.623047 0)"/>
      </g>
     </g>
    </g>
    <g id="xtick_4">
     <g id="line2d_4">
      <g>
       <use xlink:href="#m4fbd88bfb1" x="355.726383" y="354.958125" style="stroke: #000000; stroke-width: 0.8"/>
      </g>
     </g>
     <g id="text_4">
      <!-- 40 -->
      <g transform="translate(349.363883 369.556562) scale(0.1 -0.1)">
       <defs>
        <path id="DejaVuSans-34" d="M 2419 4116 
L 825 1625 
L 2419 1625 
L 2419 4116 
z
M 2253 4666 
L 3047 4666 
L 3047 1625 
L 3713 1625 
L 3713 1100 
L 3047 1100 
L 3047 0 
L 2419 0 
L 2419 1100 
L 313 1100 
L 313 1709 
L 2253 4666 
z
" transform="scale(0.015625)"/>
       </defs>
       <use xlink:href="#DejaVuSans-34"/>
       <use xlink:href="#DejaVuSans-30" transform="translate(63.623047 0)"/>
      </g>
     </g>
    </g>
    <g id="xtick_5">
     <g id="line2d_5">
      <g>
       <use xlink:href="#m4fbd88bfb1" x="441.259974" y="354.958125" style="stroke: #000000; stroke-width: 0.8"/>
      </g>
     </g>
     <g id="text_5">
      <!-- 50 -->
      <g transform="translate(434.897474 369.556562) scale(0.1 -0.1)">
       <defs>
        <path id="DejaVuSans-35" d="M 691 4666 
L 3169 4666 
L 3169 4134 
L 1269 4134 
L 1269 2991 
Q 1406 3038 1543 3061 
Q 1681 3084 1819 3084 
Q 2600 3084 3056 2656 
Q 3513 2228 3513 1497 
Q 3513 744 3044 326 
Q 2575 -91 1722 -91 
Q 1428 -91 1123 -41 
Q 819 9 494 109 
L 494 744 
Q 775 591 1075 516 
Q 1375 441 1709 441 
Q 2250 441 2565 725 
Q 2881 1009 2881 1497 
Q 2881 1984 2565 2268 
Q 2250 2553 1709 2553 
Q 1456 2553 1204 2497 
Q 953 2441 691 2322 
L 691 4666 
z
" transform="scale(0.015625)"/>
       </defs>
       <use xlink:href="#DejaVuSans-35"/>
       <use xlink:href="#DejaVuSans-30" transform="translate(63.623047 0)"/>
      </g>
     </g>
    </g>
    <g id="xtick_6">
     <g id="line2d_6">
      <g>
       <use xlink:href="#m4fbd88bfb1" x="526.793564" y="354.958125" style="stroke: #000000; stroke-width: 0.8"/>
      </g>
     </g>
     <g id="text_6">
      <!-- 60 -->
      <g transform="translate(520.431064 369.556562) scale(0.1 -0.1)">
       <defs>
        <path id="DejaVuSans-36" d="M 2113 2584 
Q 1688 2584 1439 2293 
Q 1191 2003 1191 1497 
Q 1191 994 1439 701 
Q 1688 409 2113 409 
Q 2538 409 2786 701 
Q 3034 994 3034 1497 
Q 3034 2003 2786 2293 
Q 2538 2584 2113 2584 
z
M 3366 4563 
L 3366 3988 
Q 3128 4100 2886 4159 
Q 2644 4219 2406 4219 
Q 1781 4219 1451 3797 
Q 1122 3375 1075 2522 
Q 1259 2794 1537 2939 
Q 1816 3084 2150 3084 
Q 2853 3084 3261 2657 
Q 3669 2231 3669 1497 
Q 3669 778 3244 343 
Q 2819 -91 2113 -91 
Q 1303 -91 875 529 
Q 447 1150 447 2328 
Q 447 3434 972 4092 
Q 1497 4750 2381 4750 
Q 2619 4750 2861 4703 
Q 3103 4656 3366 4563 
z
" transform="scale(0.015625)"/>
       </defs>
       <use xlink:href="#DejaVuSans-36"/>
       <use xlink:href="#DejaVuSans-30" transform="translate(63.623047 0)"/>
      </g>
     </g>
    </g>
    <g id="xtick_7">
     <g id="line2d_7">
      <g>
       <use xlink:href="#m4fbd88bfb1" x="612.327155" y="354.958125" style="stroke: #000000; stroke-width: 0.8"/>
      </g>
     </g>
     <g id="text_7">
      <!-- 70 -->
      <g transform="translate(605.964655 369.556562) scale(0.1 -0.1)">
       <defs>
        <path id="DejaVuSans-37" d="M 525 4666 
L 3525 4666 
L 3525 4397 
L 1831 0 
L 1172 0 
L 2766 4134 
L 525 4134 
L 525 4666 
z
" transform="scale(0.015625)"/>
       </defs>
       <use xlink:href="#DejaVuSans-37"/>
       <use xlink:href="#DejaVuSans-30" transform="translate(63.623047 0)"/>
      </g>
     </g>
    </g>
    <g id="xtick_8">
     <g id="line2d_8">
      <g>
       <use xlink:href="#m4fbd88bfb1" x="697.860745" y="354.958125" style="stroke: #000000; stroke-width: 0.8"/>
      </g>
     </g>
     <g id="text_8">
      <!-- 80 -->
      <g transform="translate(691.498245 369.556562) scale(0.1 -0.1)">
       <defs>
        <path id="DejaVuSans-38" d="M 2034 2216 
Q 1584 2216 1326 1975 
Q 1069 1734 1069 1313 
Q 1069 891 1326 650 
Q 1584 409 2034 409 
Q 2484 409 2743 651 
Q 3003 894 3003 1313 
Q 3003 1734 2745 1975 
Q 2488 2216 2034 2216 
z
M 1403 2484 
Q 997 2584 770 2862 
Q 544 3141 544 3541 
Q 544 4100 942 4425 
Q 1341 4750 2034 4750 
Q 2731 4750 3128 4425 
Q 3525 4100 3525 3541 
Q 3525 3141 3298 2862 
Q 3072 2584 2669 2484 
Q 3125 2378 3379 2068 
Q 3634 1759 3634 1313 
Q 3634 634 3220 271 
Q 2806 -91 2034 -91 
Q 1263 -91 848 271 
Q 434 634 434 1313 
Q 434 1759 690 2068 
Q 947 2378 1403 2484 
z
M 1172 3481 
Q 1172 3119 1398 2916 
Q 1625 2713 2034 2713 
Q 2441 2713 2670 2916 
Q 2900 3119 2900 3481 
Q 2900 3844 2670 4047 
Q 2441 4250 2034 4250 
Q 1625 4250 1398 4047 
Q 1172 3844 1172 3481 
z
" transform="scale(0.015625)"/>
       </defs>
       <use xlink:href="#DejaVuSans-38"/>
       <use xlink:href="#DejaVuSans-30" transform="translate(63.623047 0)"/>
      </g>
     </g>
    </g>
    <g id="text_9">
     <!-- Value -->
     <g transform="translate(371.2125 383.234687) scale(0.1 -0.1)">
      <defs>
       <path id="DejaVuSans-56" d="M 1831 0 
L 50 4666 
L 709 4666 
L 2188 738 
L 3669 4666 
L 4325 4666 
L 2547 0 
L 1831 0 
z
" transform="scale(0.015625)"/>
       <path id="DejaVuSans-61" d="M 2194 1759 
Q 1497 1759 1228 1600 
Q 959 1441 959 1056 
Q 959 750 1161 570 
Q 1363 391 1709 391 
Q 2188 391 2477 730 
Q 2766 1069 2766 1631 
L 2766 1759 
L 2194 1759 
z
M 3341 1997 
L 3341 0 
L 2766 0 
L 2766 531 
Q 2569 213 2275 61 
Q 1981 -91 1556 -91 
Q 1019 -91 701 211 
Q 384 513 384 1019 
Q 384 1609 779 1909 
Q 1175 2209 1959 2209 
L 2766 2209 
L 2766 2266 
Q 2766 2663 2505 2880 
Q 2244 3097 1772 3097 
Q 1472 3097 1187 3025 
Q 903 2953 641 2809 
L 641 3341 
Q 956 3463 1253 3523 
Q 1550 3584 1831 3584 
Q 2591 3584 2966 3190 
Q 3341 2797 3341 1997 
z
" transform="scale(0.015625)"/>
       <path id="DejaVuSans-6c" d="M 603 4863 
L 1178 4863 
L 1178 0 
L 603 0 
L 603 4863 
z
" transform="scale(0.015625)"/>
       <path id="DejaVuSans-75" d="M 544 1381 
L 544 3500 
L 1119 3500 
L 1119 1403 
Q 1119 906 1312 657 
Q 1506 409 1894 409 
Q 2359 409 2629 706 
Q 2900 1003 2900 1516 
L 2900 3500 
L 3475 3500 
L 3475 0 
L 2900 0 
L 2900 538 
Q 2691 219 2414 64 
Q 2138 -91 1772 -91 
Q 1169 -91 856 284 
Q 544 659 544 1381 
z
M 1991 3584 
L 1991 3584 
z
" transform="scale(0.015625)"/>
       <path id="DejaVuSans-65" d="M 3597 1894 
L 3597 1613 
L 953 1613 
Q 991 1019 1311 708 
Q 1631 397 2203 397 
Q 2534 397 2845 478 
Q 3156 559 3463 722 
L 3463 178 
Q 3153 47 2828 -22 
Q 2503 -91 2169 -91 
Q 1331 -91 842 396 
Q 353 884 353 1716 
Q 353 2575 817 3079 
Q 1281 3584 2069 3584 
Q 2775 3584 3186 3129 
Q 3597 2675 3597 1894 
z
M 3022 2063 
Q 3016 2534 2758 2815 
Q 2500 3097 2075 3097 
Q 1594 3097 1305 2825 
Q 1016 2553 972 2059 
L 3022 2063 
z
" transform="scale(0.015625)"/>
      </defs>
      <use xlink:href="#DejaVuSans-56"/>
      <use xlink:href="#DejaVuSans-61" transform="translate(60.658203 0)"/>
      <use xlink:href="#DejaVuSans-6c" transform="translate(121.9375 0)"/>
      <use xlink:href="#DejaVuSans-75" transform="translate(149.720703 0)"/>
      <use xlink:href="#DejaVuSans-65" transform="translate(213.099609 0)"/>
     </g>
    </g>
   </g>
   <g id="matplotlib.axis_2">
    <g id="ytick_1">
     <g id="line2d_9">
      <defs>
       <path id="mf5ab9fcba3" d="M 0 0 
L -3.5 0 
" style="stroke: #000000; stroke-width: 0.8"/>
      </defs>
      <g>
       <use xlink:href="#mf5ab9fcba3" x="50.14375" y="354.958125" style="stroke: #000000; stroke-width: 0.8"/>
      </g>
     </g>
     <g id="text_10">
      <!-- 0.00 -->
      <g transform="translate(20.878125 358.757344) scale(0.1 -0.1)">
       <defs>
        <path id="DejaVuSans-2e" d="M 684 794 
L 1344 794 
L 1344 0 
L 684 0 
L 684 794 
z
" transform="scale(0.015625)"/>
       </defs>
       <use xlink:href="#DejaVuSans-30"/>
       <use xlink:href="#DejaVuSans-2e" transform="translate(63.623047 0)"/>
       <use xlink:href="#DejaVuSans-30" transform="translate(95.410156 0)"/>
       <use xlink:href="#DejaVuSans-30" transform="translate(159.033203 0)"/>
      </g>
     </g>
    </g>
    <g id="ytick_2">
     <g id="line2d_10">
      <g>
       <use xlink:href="#mf5ab9fcba3" x="50.14375" y="295.743172" style="stroke: #000000; stroke-width: 0.8"/>
      </g>
     </g>
     <g id="text_11">
      <!-- 0.01 -->
      <g transform="translate(20.878125 299.54239) scale(0.1 -0.1)">
       <use xlink:href="#DejaVuSans-30"/>
       <use xlink:href="#DejaVuSans-2e" transform="translate(63.623047 0)"/>
       <use xlink:href="#DejaVuSans-30" transform="translate(95.410156 0)"/>
       <use xlink:href="#DejaVuSans-31" transform="translate(159.033203 0)"/>
      </g>
     </g>
    </g>
    <g id="ytick_3">
     <g id="line2d_11">
      <g>
       <use xlink:href="#mf5ab9fcba3" x="50.14375" y="236.528218" style="stroke: #000000; stroke-width: 0.8"/>
      </g>
     </g>
     <g id="text_12">
      <!-- 0.02 -->
      <g transform="translate(20.878125 240.327437) scale(0.1 -0.1)">
       <use xlink:href="#DejaVuSans-30"/>
       <use xlink:href="#DejaVuSans-2e" transform="translate(63.623047 0)"/>
       <use xlink:href="#DejaVuSans-30" transform="translate(95.410156 0)"/>
       <use xlink:href="#DejaVuSans-32" transform="translate(159.033203 0)"/>
      </g>
     </g>
    </g>
    <g id="ytick_4">
     <g id="line2d_12">
      <g>
       <use xlink:href="#mf5ab9fcba3" x="50.14375" y="177.313265" style="stroke: #000000; stroke-width: 0.8"/>
      </g>
     </g>
     <g id="text_13">
      <!-- 0.03 -->
      <g transform="translate(20.878125 181.112484) scale(0.1 -0.1)">
       <use xlink:href="#DejaVuSans-30"/>
       <use xlink:href="#DejaVuSans-2e" transform="translate(63.623047 0)"/>
       <use xlink:href="#DejaVuSans-30" transform="translate(95.410156 0)"/>
       <use xlink:href="#DejaVuSans-33" transform="translate(159.033203 0)"/>
      </g>
     </g>
    </g>
    <g id="ytick_5">
     <g id="line2d_13">
      <g>
       <use xlink:href="#mf5ab9fcba3" x="50.14375" y="118.098312" style="stroke: #000000; stroke-width: 0.8"/>
      </g>
     </g>
     <g id="text_14">
      <!-- 0.04 -->
      <g transform="translate(20.878125 121.897531) scale(0.1 -0.1)">
       <use xlink:href="#DejaVuSans-30"/>
       <use xlink:href="#DejaVuSans-2e" transform="translate(63.623047 0)"/>
       <use xlink:href="#DejaVuSans-30" transform="translate(95.410156 0)"/>
       <use xlink:href="#DejaVuSans-34" transform="translate(159.033203 0)"/>
      </g>
     </g>
    </g>
    <g id="ytick_6">
     <g id="line2d_14">
      <g>
       <use xlink:href="#mf5ab9fcba3" x="50.14375" y="58.883359" style="stroke: #000000; stroke-width: 0.8"/>
      </g>
     </g>
     <g id="text_15">
      <!-- 0.05 -->
      <g transform="translate(20.878125 62.682577) scale(0.1 -0.1)">
       <use xlink:href="#DejaVuSans-30"/>
       <use xlink:href="#DejaVuSans-2e" transform="translate(63.623047 0)"/>
       <use xlink:href="#DejaVuSans-30" transform="translate(95.410156 0)"/>
       <use xlink:href="#DejaVuSans-35" transform="translate(159.033203 0)"/>
      </g>
     </g>
    </g>
    <g id="text_16">
     <!-- Density -->
     <g transform="translate(14.798438 207.646719) rotate(-90) scale(0.1 -0.1)">
      <defs>
       <path id="DejaVuSans-44" d="M 1259 4147 
L 1259 519 
L 2022 519 
Q 2988 519 3436 956 
Q 3884 1394 3884 2338 
Q 3884 3275 3436 3711 
Q 2988 4147 2022 4147 
L 1259 4147 
z
M 628 4666 
L 1925 4666 
Q 3281 4666 3915 4102 
Q 4550 3538 4550 2338 
Q 4550 1131 3912 565 
Q 3275 0 1925 0 
L 628 0 
L 628 4666 
z
" transform="scale(0.015625)"/>
       <path id="DejaVuSans-6e" d="M 3513 2113 
L 3513 0 
L 2938 0 
L 2938 2094 
Q 2938 2591 2744 2837 
Q 2550 3084 2163 3084 
Q 1697 3084 1428 2787 
Q 1159 2491 1159 1978 
L 1159 0 
L 581 0 
L 581 3500 
L 1159 3500 
L 1159 2956 
Q 1366 3272 1645 3428 
Q 1925 3584 2291 3584 
Q 2894 3584 3203 3211 
Q 3513 2838 3513 2113 
z
" transform="scale(0.015625)"/>
       <path id="DejaVuSans-73" d="M 2834 3397 
L 2834 2853 
Q 2591 2978 2328 3040 
Q 2066 3103 1784 3103 
Q 1356 3103 1142 2972 
Q 928 2841 928 2578 
Q 928 2378 1081 2264 
Q 1234 2150 1697 2047 
L 1894 2003 
Q 2506 1872 2764 1633 
Q 3022 1394 3022 966 
Q 3022 478 2636 193 
Q 2250 -91 1575 -91 
Q 1294 -91 989 -36 
Q 684 19 347 128 
L 347 722 
Q 666 556 975 473 
Q 1284 391 1588 391 
Q 1994 391 2212 530 
Q 2431 669 2431 922 
Q 2431 1156 2273 1281 
Q 2116 1406 1581 1522 
L 1381 1569 
Q 847 1681 609 1914 
Q 372 2147 372 2553 
Q 372 3047 722 3315 
Q 1072 3584 1716 3584 
Q 2034 3584 2315 3537 
Q 2597 3491 2834 3397 
z
" transform="scale(0.015625)"/>
       <path id="DejaVuSans-69" d="M 603 3500 
L 1178 3500 
L 1178 0 
L 603 0 
L 603 3500 
z
M 603 4863 
L 1178 4863 
L 1178 4134 
L 603 4134 
L 603 4863 
z
" transform="scale(0.015625)"/>
       <path id="DejaVuSans-74" d="M 1172 4494 
L 1172 3500 
L 2356 3500 
L 2356 3053 
L 1172 3053 
L 1172 1153 
Q 1172 725 1289 603 
Q 1406 481 1766 481 
L 2356 481 
L 2356 0 
L 1766 0 
Q 1100 0 847 248 
Q 594 497 594 1153 
L 594 3053 
L 172 3053 
L 172 3500 
L 594 3500 
L 594 4494 
L 1172 4494 
z
" transform="scale(0.015625)"/>
       <path id="DejaVuSans-79" d="M 2059 -325 
Q 1816 -950 1584 -1140 
Q 1353 -1331 966 -1331 
L 506 -1331 
L 506 -850 
L 844 -850 
Q 1081 -850 1212 -737 
Q 1344 -625 1503 -206 
L 1606 56 
L 191 3500 
L 800 3500 
L 1894 763 
L 2988 3500 
L 3597 3500 
L 2059 -325 
z
" transform="scale(0.015625)"/>
      </defs>
      <use xlink:href="#DejaVuSans-44"/>
      <use xlink:href="#DejaVuSans-65" transform="translate(77.001953 0)"/>
      <use xlink:href="#DejaVuSans-6e" transform="translate(138.525391 0)"/>
      <use xlink:href="#DejaVuSans-73" transform="translate(201.904297 0)"/>
      <use xlink:href="#DejaVuSans-69" transform="translate(254.003906 0)"/>
      <use xlink:href="#DejaVuSans-74" transform="translate(281.787109 0)"/>
      <use xlink:href="#DejaVuSans-79" transform="translate(320.996094 0)"/>
     </g>
    </g>
   </g>
   <g id="line2d_15">
    <path d="M 193.212561 306.59886 
L 194.871741 296.97746 
L 198.190101 275.357479 
L 203.167641 239.577017 
L 206.486001 215.801542 
L 209.804361 193.74163 
L 211.463541 183.665764 
L 213.122721 174.323106 
L 214.781901 165.742745 
L 216.441081 157.921095 
L 218.100261 150.825475 
L 219.759441 144.39872 
L 221.418621 138.564613 
L 223.077801 133.233975 
L 226.396161 123.701069 
L 229.714521 115.078457 
L 236.351241 98.786694 
L 239.669601 91.014424 
L 242.987961 83.811772 
L 244.647141 80.522248 
L 246.306321 77.485535 
L 247.965501 74.730067 
L 249.624681 72.283112 
L 251.283861 70.174672 
L 252.943041 68.441046 
L 254.602222 67.126681 
L 256.261402 66.283315 
L 257.920582 65.966043 
L 259.579762 66.226735 
L 261.238942 67.105879 
L 262.898122 68.624399 
L 264.557302 70.777033 
L 266.216482 73.528572 
L 267.875662 76.813679 
L 269.534842 80.540334 
L 272.853202 88.857581 
L 277.830742 101.644365 
L 279.489922 105.555106 
L 281.149102 109.160454 
L 282.808282 112.415468 
L 284.467462 115.296771 
L 286.126642 117.800446 
L 287.785822 119.939164 
L 289.445002 121.738931 
L 291.104182 123.235802 
L 292.763362 124.472721 
L 294.422542 125.496609 
L 297.740902 127.097266 
L 307.695982 131.174948 
L 311.014342 132.950496 
L 314.332702 135.085804 
L 317.651062 137.639337 
L 320.969422 140.667741 
L 324.287782 144.19127 
L 327.606142 148.147651 
L 340.879582 164.730484 
L 349.175483 173.988338 
L 354.153023 179.696897 
L 360.789743 187.647987 
L 367.426463 195.929004 
L 380.699903 212.86282 
L 384.018263 216.603686 
L 397.291703 230.970034 
L 402.269243 237.070722 
L 410.565143 247.429322 
L 413.883503 251.279189 
L 417.201863 254.815817 
L 420.520223 258.006314 
L 423.838583 260.889259 
L 435.452844 270.447332 
L 438.771204 273.56144 
L 443.748744 278.586893 
L 448.726284 283.577859 
L 452.044644 286.591038 
L 455.363004 289.242265 
L 458.681364 291.578149 
L 465.318084 296.016887 
L 468.636444 298.515277 
L 471.954804 301.328581 
L 476.932344 306.008715 
L 486.887424 315.585032 
L 491.864964 320.037662 
L 496.842504 324.138655 
L 500.160864 326.619148 
L 503.479224 328.878844 
L 508.456764 331.916179 
L 513.434304 334.676901 
L 518.411844 337.239816 
L 523.389385 339.545247 
L 528.366925 341.523373 
L 533.344465 343.199434 
L 538.322005 344.658886 
L 544.958725 346.352998 
L 549.936265 347.411883 
L 554.913805 348.255854 
L 561.550525 349.086962 
L 596.393305 352.615291 
L 606.348385 352.962585 
L 612.985106 353.306357 
L 626.258546 354.103667 
L 634.554446 354.323901 
L 674.374766 354.902383 
L 689.307386 354.890372 
L 689.307386 354.890372 
" clip-path="url(#p99cbd9f01b)" style="fill: none; stroke: #4682b4; stroke-width: 2; stroke-linecap: square"/>
   </g>
   <g id="line2d_16">
    <path d="M 193.212561 280.40393 
L 198.190101 272.792122 
L 203.167641 264.763362 
L 208.145181 256.3439 
L 213.122721 247.56737 
L 219.759441 235.382095 
L 228.055341 219.544182 
L 239.669601 196.755849 
L 251.283861 174.099929 
L 257.920582 161.618167 
L 262.898122 152.637674 
L 267.875662 144.082184 
L 272.853202 136.03917 
L 276.171562 131.003878 
L 279.489922 126.258243 
L 282.808282 121.825376 
L 286.126642 117.727184 
L 289.445002 113.984183 
L 292.763362 110.615331 
L 296.081722 107.637865 
L 299.400082 105.067158 
L 302.718442 102.916586 
L 306.036802 101.197408 
L 309.355162 99.918673 
L 312.673522 99.087138 
L 314.332702 98.84054 
L 315.991882 98.707209 
L 317.651062 98.687321 
L 319.310242 98.780903 
L 320.969422 98.98783 
L 324.287782 99.740472 
L 327.606142 100.941258 
L 330.924502 102.583838 
L 334.242862 104.659561 
L 337.561222 107.157547 
L 340.879582 110.064785 
L 344.197943 113.366242 
L 347.516303 117.044996 
L 350.834663 121.082382 
L 354.153023 125.458143 
L 357.471383 130.150604 
L 360.789743 135.136851 
L 365.767283 143.114394 
L 370.744823 151.614484 
L 375.722363 160.549889 
L 382.359083 172.987673 
L 390.654983 189.082967 
L 410.565143 228.006739 
L 417.201863 240.467892 
L 423.838583 252.434902 
L 428.816123 261.019714 
L 433.793664 269.228041 
L 438.771204 277.030333 
L 443.748744 284.404297 
L 448.726284 291.334579 
L 453.703824 297.812334 
L 458.681364 303.834728 
L 463.658904 309.404363 
L 468.636444 314.528671 
L 473.613984 319.219274 
L 478.591524 323.49134 
L 483.569064 327.362944 
L 488.546604 330.854453 
L 493.524144 333.98794 
L 498.501684 336.786641 
L 503.479224 339.274459 
L 508.456764 341.475517 
L 513.434304 343.413781 
L 518.411844 345.112717 
L 523.389385 346.595025 
L 528.366925 347.882417 
L 535.003645 349.331074 
L 541.640365 350.514733 
L 548.277085 351.47418 
L 556.572985 352.413114 
L 564.868885 353.119471 
L 574.823965 353.73146 
L 586.438225 354.208395 
L 601.370845 354.572518 
L 621.281006 354.807846 
L 652.805426 354.928457 
L 689.307386 354.954412 
L 689.307386 354.954412 
" clip-path="url(#p99cbd9f01b)" style="fill: none; stroke-dasharray: 7.4,3.2; stroke-dashoffset: 0; stroke: #ff0000; stroke-width: 2"/>
   </g>
   <g id="line2d_17">
    <path d="M 317.112243 354.958125 
L 317.112243 22.318125 
" clip-path="url(#p99cbd9f01b)" style="fill: none; stroke-dasharray: 2.96,1.28; stroke-dashoffset: 0; stroke: #008000; stroke-width: 0.8"/>
   </g>
   <g id="line2d_18">
    <path d="M 553.644373 354.958125 
L 553.644373 22.318125 
" clip-path="url(#p99cbd9f01b)" style="fill: none; stroke-dasharray: 2.59,1.12; stroke-dashoffset: 0; stroke: #ffa500; stroke-width: 0.7"/>
   </g>
   <g id="line2d_19">
    <path d="M 80.580114 354.958125 
L 80.580114 22.318125 
" clip-path="url(#p99cbd9f01b)" style="fill: none; stroke-dasharray: 2.59,1.12; stroke-dashoffset: 0; stroke: #ffa500; stroke-width: 0.7"/>
   </g>
   <g id="line2d_20"/>
   <g id="line2d_21"/>
   <g id="patch_61">
    <path d="M 50.14375 354.958125 
L 50.14375 22.318125 
" style="fill: none; stroke: #000000; stroke-width: 0.8; stroke-linejoin: miter; stroke-linecap: square"/>
   </g>
   <g id="patch_62">
    <path d="M 719.74375 354.958125 
L 719.74375 22.318125 
" style="fill: none; stroke: #000000; stroke-width: 0.8; stroke-linejoin: miter; stroke-linecap: square"/>
   </g>
   <g id="patch_63">
    <path d="M 50.14375 354.958125 
L 719.74375 354.958125 
" style="fill: none; stroke: #000000; stroke-width: 0.8; stroke-linejoin: miter; stroke-linecap: square"/>
   </g>
   <g id="patch_64">
    <path d="M 50.14375 22.318125 
L 719.74375 22.318125 
" style="fill: none; stroke: #000000; stroke-width: 0.8; stroke-linejoin: miter; stroke-linecap: square"/>
   </g>
   <g id="text_17">
    <g id="patch_65">
     <path d="M 63.53575 70.615331 
L 130.665906 70.615331 
Q 133.365906 70.615331 133.365906 67.915331 
L 133.365906 28.970925 
Q 133.365906 26.270925 130.665906 26.270925 
L 63.53575 26.270925 
Q 60.83575 26.270925 60.83575 28.970925 
L 60.83575 67.915331 
Q 60.83575 70.615331 63.53575 70.615331 
z
" style="fill: #f5deb3; opacity: 0.7; stroke: #000000; stroke-linejoin: miter"/>
    </g>
    <!-- Outliers (±3σ): -->
    <g transform="translate(63.53575 35.809519) scale(0.09 -0.09)">
     <defs>
      <path id="DejaVuSans-4f" d="M 2522 4238 
Q 1834 4238 1429 3725 
Q 1025 3213 1025 2328 
Q 1025 1447 1429 934 
Q 1834 422 2522 422 
Q 3209 422 3611 934 
Q 4013 1447 4013 2328 
Q 4013 3213 3611 3725 
Q 3209 4238 2522 4238 
z
M 2522 4750 
Q 3503 4750 4090 4092 
Q 4678 3434 4678 2328 
Q 4678 1225 4090 567 
Q 3503 -91 2522 -91 
Q 1538 -91 948 565 
Q 359 1222 359 2328 
Q 359 3434 948 4092 
Q 1538 4750 2522 4750 
z
" transform="scale(0.015625)"/>
      <path id="DejaVuSans-72" d="M 2631 2963 
Q 2534 3019 2420 3045 
Q 2306 3072 2169 3072 
Q 1681 3072 1420 2755 
Q 1159 2438 1159 1844 
L 1159 0 
L 581 0 
L 581 3500 
L 1159 3500 
L 1159 2956 
Q 1341 3275 1631 3429 
Q 1922 3584 2338 3584 
Q 2397 3584 2469 3576 
Q 2541 3569 2628 3553 
L 2631 2963 
z
" transform="scale(0.015625)"/>
      <path id="DejaVuSans-20" transform="scale(0.015625)"/>
      <path id="DejaVuSans-28" d="M 1984 4856 
Q 1566 4138 1362 3434 
Q 1159 2731 1159 2009 
Q 1159 1288 1364 580 
Q 1569 -128 1984 -844 
L 1484 -844 
Q 1016 -109 783 600 
Q 550 1309 550 2009 
Q 550 2706 781 3412 
Q 1013 4119 1484 4856 
L 1984 4856 
z
" transform="scale(0.015625)"/>
      <path id="DejaVuSans-b1" d="M 2944 4013 
L 2944 2803 
L 4684 2803 
L 4684 2272 
L 2944 2272 
L 2944 1063 
L 2419 1063 
L 2419 2272 
L 678 2272 
L 678 2803 
L 2419 2803 
L 2419 4013 
L 2944 4013 
z
M 678 531 
L 4684 531 
L 4684 0 
L 678 0 
L 678 531 
z
" transform="scale(0.015625)"/>
      <path id="DejaVuSans-3c3" d="M 1959 3044 
Q 1484 3044 1228 2700 
Q 959 2341 959 1747 
Q 959 1119 1226 758 
Q 1494 397 1959 397 
Q 2419 397 2687 759 
Q 2956 1122 2956 1747 
Q 2956 2319 2688 2700 
Q 2441 3044 1959 3044 
z
M 1959 3500 
L 3869 3500 
L 3869 2925 
L 3225 2925 
Q 3566 2438 3566 1747 
Q 3566 888 3138 400 
Q 2709 -91 1959 -91 
Q 1206 -91 781 400 
Q 353 888 353 1747 
Q 353 2613 781 3097 
Q 1134 3500 1959 3500 
z
" transform="scale(0.015625)"/>
      <path id="DejaVuSans-29" d="M 513 4856 
L 1013 4856 
Q 1481 4119 1714 3412 
Q 1947 2706 1947 2009 
Q 1947 1309 1714 600 
Q 1481 -109 1013 -844 
L 513 -844 
Q 928 -128 1133 580 
Q 1338 1288 1338 2009 
Q 1338 2731 1133 3434 
Q 928 4138 513 4856 
z
" transform="scale(0.015625)"/>
      <path id="DejaVuSans-3a" d="M 750 794 
L 1409 794 
L 1409 0 
L 750 0 
L 750 794 
z
M 750 3309 
L 1409 3309 
L 1409 2516 
L 750 2516 
L 750 3309 
z
" transform="scale(0.015625)"/>
     </defs>
     <use xlink:href="#DejaVuSans-4f"/>
     <use xlink:href="#DejaVuSans-75" transform="translate(78.710938 0)"/>
     <use xlink:href="#DejaVuSans-74" transform="translate(142.089844 0)"/>
     <use xlink:href="#DejaVuSans-6c" transform="translate(181.298828 0)"/>
     <use xlink:href="#DejaVuSans-69" transform="translate(209.082031 0)"/>
     <use xlink:href="#DejaVuSans-65" transform="translate(236.865234 0)"/>
     <use xlink:href="#DejaVuSans-72" transform="translate(298.388672 0)"/>
     <use xlink:href="#DejaVuSans-73" transform="translate(339.501953 0)"/>
     <use xlink:href="#DejaVuSans-20" transform="translate(391.601562 0)"/>
     <use xlink:href="#DejaVuSans-28" transform="translate(423.388672 0)"/>
     <use xlink:href="#DejaVuSans-b1" transform="translate(462.402344 0)"/>
     <use xlink:href="#DejaVuSans-33" transform="translate(546.191406 0)"/>
     <use xlink:href="#DejaVuSans-3c3" transform="translate(609.814453 0)"/>
     <use xlink:href="#DejaVuSans-29" transform="translate(673.193359 0)"/>
     <use xlink:href="#DejaVuSans-3a" transform="translate(712.207031 0)"/>
    </g>
    <!-- Left: 0 -->
    <g transform="translate(63.53575 45.88755) scale(0.09 -0.09)">
     <defs>
      <path id="DejaVuSans-4c" d="M 628 4666 
L 1259 4666 
L 1259 531 
L 3531 531 
L 3531 0 
L 628 0 
L 628 4666 
z
" transform="scale(0.015625)"/>
      <path id="DejaVuSans-66" d="M 2375 4863 
L 2375 4384 
L 1825 4384 
Q 1516 4384 1395 4259 
Q 1275 4134 1275 3809 
L 1275 3500 
L 2222 3500 
L 2222 3053 
L 1275 3053 
L 1275 0 
L 697 0 
L 697 3053 
L 147 3053 
L 147 3500 
L 697 3500 
L 697 3744 
Q 697 4328 969 4595 
Q 1241 4863 1831 4863 
L 2375 4863 
z
" transform="scale(0.015625)"/>
     </defs>
     <use xlink:href="#DejaVuSans-4c"/>
     <use xlink:href="#DejaVuSans-65" transform="translate(53.962891 0)"/>
     <use xlink:href="#DejaVuSans-66" transform="translate(115.486328 0)"/>
     <use xlink:href="#DejaVuSans-74" transform="translate(148.941406 0)"/>
     <use xlink:href="#DejaVuSans-3a" transform="translate(188.150391 0)"/>
     <use xlink:href="#DejaVuSans-20" transform="translate(221.841797 0)"/>
     <use xlink:href="#DejaVuSans-30" transform="translate(253.628906 0)"/>
    </g>
    <!-- Right: 141 -->
    <g transform="translate(63.53575 55.965581) scale(0.09 -0.09)">
     <defs>
      <path id="DejaVuSans-52" d="M 2841 2188 
Q 3044 2119 3236 1894 
Q 3428 1669 3622 1275 
L 4263 0 
L 3584 0 
L 2988 1197 
Q 2756 1666 2539 1819 
Q 2322 1972 1947 1972 
L 1259 1972 
L 1259 0 
L 628 0 
L 628 4666 
L 2053 4666 
Q 2853 4666 3247 4331 
Q 3641 3997 3641 3322 
Q 3641 2881 3436 2590 
Q 3231 2300 2841 2188 
z
M 1259 4147 
L 1259 2491 
L 2053 2491 
Q 2509 2491 2742 2702 
Q 2975 2913 2975 3322 
Q 2975 3731 2742 3939 
Q 2509 4147 2053 4147 
L 1259 4147 
z
" transform="scale(0.015625)"/>
      <path id="DejaVuSans-67" d="M 2906 1791 
Q 2906 2416 2648 2759 
Q 2391 3103 1925 3103 
Q 1463 3103 1205 2759 
Q 947 2416 947 1791 
Q 947 1169 1205 825 
Q 1463 481 1925 481 
Q 2391 481 2648 825 
Q 2906 1169 2906 1791 
z
M 3481 434 
Q 3481 -459 3084 -895 
Q 2688 -1331 1869 -1331 
Q 1566 -1331 1297 -1286 
Q 1028 -1241 775 -1147 
L 775 -588 
Q 1028 -725 1275 -790 
Q 1522 -856 1778 -856 
Q 2344 -856 2625 -561 
Q 2906 -266 2906 331 
L 2906 616 
Q 2728 306 2450 153 
Q 2172 0 1784 0 
Q 1141 0 747 490 
Q 353 981 353 1791 
Q 353 2603 747 3093 
Q 1141 3584 1784 3584 
Q 2172 3584 2450 3431 
Q 2728 3278 2906 2969 
L 2906 3500 
L 3481 3500 
L 3481 434 
z
" transform="scale(0.015625)"/>
      <path id="DejaVuSans-68" d="M 3513 2113 
L 3513 0 
L 2938 0 
L 2938 2094 
Q 2938 2591 2744 2837 
Q 2550 3084 2163 3084 
Q 1697 3084 1428 2787 
Q 1159 2491 1159 1978 
L 1159 0 
L 581 0 
L 581 4863 
L 1159 4863 
L 1159 2956 
Q 1366 3272 1645 3428 
Q 1925 3584 2291 3584 
Q 2894 3584 3203 3211 
Q 3513 2838 3513 2113 
z
" transform="scale(0.015625)"/>
     </defs>
     <use xlink:href="#DejaVuSans-52"/>
     <use xlink:href="#DejaVuSans-69" transform="translate(69.482422 0)"/>
     <use xlink:href="#DejaVuSans-67" transform="translate(97.265625 0)"/>
     <use xlink:href="#DejaVuSans-68" transform="translate(160.742188 0)"/>
     <use xlink:href="#DejaVuSans-74" transform="translate(224.121094 0)"/>
     <use xlink:href="#DejaVuSans-3a" transform="translate(263.330078 0)"/>
     <use xlink:href="#DejaVuSans-20" transform="translate(297.021484 0)"/>
     <use xlink:href="#DejaVuSans-31" transform="translate(328.808594 0)"/>
     <use xlink:href="#DejaVuSans-34" transform="translate(392.431641 0)"/>
     <use xlink:href="#DejaVuSans-31" transform="translate(456.054688 0)"/>
    </g>
    <!-- Total: 141 -->
    <g transform="translate(63.53575 66.043612) scale(0.09 -0.09)">
     <defs>
      <path id="DejaVuSans-54" d="M -19 4666 
L 3928 4666 
L 3928 4134 
L 2272 4134 
L 2272 0 
L 1638 0 
L 1638 4134 
L -19 4134 
L -19 4666 
z
" transform="scale(0.015625)"/>
      <path id="DejaVuSans-6f" d="M 1959 3097 
Q 1497 3097 1228 2736 
Q 959 2375 959 1747 
Q 959 1119 1226 758 
Q 1494 397 1959 397 
Q 2419 397 2687 759 
Q 2956 1122 2956 1747 
Q 2956 2369 2687 2733 
Q 2419 3097 1959 3097 
z
M 1959 3584 
Q 2709 3584 3137 3096 
Q 3566 2609 3566 1747 
Q 3566 888 3137 398 
Q 2709 -91 1959 -91 
Q 1206 -91 779 398 
Q 353 888 353 1747 
Q 353 2609 779 3096 
Q 1206 3584 1959 3584 
z
" transform="scale(0.015625)"/>
     </defs>
     <use xlink:href="#DejaVuSans-54"/>
     <use xlink:href="#DejaVuSans-6f" transform="translate(44.083984 0)"/>
     <use xlink:href="#DejaVuSans-74" transform="translate(105.265625 0)"/>
     <use xlink:href="#DejaVuSans-61" transform="translate(144.474609 0)"/>
     <use xlink:href="#DejaVuSans-6c" transform="translate(205.753906 0)"/>
     <use xlink:href="#DejaVuSans-3a" transform="translate(233.537109 0)"/>
     <use xlink:href="#DejaVuSans-20" transform="translate(267.228516 0)"/>
     <use xlink:href="#DejaVuSans-31" transform="translate(299.015625 0)"/>
     <use xlink:href="#DejaVuSans-34" transform="translate(362.638672 0)"/>
     <use xlink:href="#DejaVuSans-31" transform="translate(426.261719 0)"/>
    </g>
   </g>
   <g id="text_18">
    <!-- age -->
    <g transform="translate(373.765938 16.318125) scale(0.12 -0.12)">
     <use xlink:href="#DejaVuSans-61"/>
     <use xlink:href="#DejaVuSans-67" transform="translate(61.279297 0)"/>
     <use xlink:href="#DejaVuSans-65" transform="translate(124.755859 0)"/>
    </g>
   </g>
   <g id="legend_1">
    <g id="patch_66">
     <path d="M 581.445 110.915625 
L 714.14375 110.915625 
Q 715.74375 110.915625 715.74375 109.315625 
L 715.74375 27.918125 
Q 715.74375 26.318125 714.14375 26.318125 
L 581.445 26.318125 
Q 579.845 26.318125 579.845 27.918125 
L 579.845 109.315625 
Q 579.845 110.915625 581.445 110.915625 
z
" style="fill: #ffffff; opacity: 0.8; stroke: #cccccc; stroke-linejoin: miter"/>
    </g>
    <g id="patch_67">
     <path d="M 583.045 35.596875 
L 599.045 35.596875 
L 599.045 29.996875 
L 583.045 29.996875 
z
" style="fill: #4682b4; opacity: 0.4"/>
    </g>
    <g id="text_19">
     <!-- Histogram -->
     <g transform="translate(605.445 35.596875) scale(0.08 -0.08)">
      <defs>
       <path id="DejaVuSans-48" d="M 628 4666 
L 1259 4666 
L 1259 2753 
L 3553 2753 
L 3553 4666 
L 4184 4666 
L 4184 0 
L 3553 0 
L 3553 2222 
L 1259 2222 
L 1259 0 
L 628 0 
L 628 4666 
z
" transform="scale(0.015625)"/>
       <path id="DejaVuSans-6d" d="M 3328 2828 
Q 3544 3216 3844 3400 
Q 4144 3584 4550 3584 
Q 5097 3584 5394 3201 
Q 5691 2819 5691 2113 
L 5691 0 
L 5113 0 
L 5113 2094 
Q 5113 2597 4934 2840 
Q 4756 3084 4391 3084 
Q 3944 3084 3684 2787 
Q 3425 2491 3425 1978 
L 3425 0 
L 2847 0 
L 2847 2094 
Q 2847 2600 2669 2842 
Q 2491 3084 2119 3084 
Q 1678 3084 1418 2786 
Q 1159 2488 1159 1978 
L 1159 0 
L 581 0 
L 581 3500 
L 1159 3500 
L 1159 2956 
Q 1356 3278 1631 3431 
Q 1906 3584 2284 3584 
Q 2666 3584 2933 3390 
Q 3200 3197 3328 2828 
z
" transform="scale(0.015625)"/>
      </defs>
      <use xlink:href="#DejaVuSans-48"/>
      <use xlink:href="#DejaVuSans-69" transform="translate(75.195312 0)"/>
      <use xlink:href="#DejaVuSans-73" transform="translate(102.978516 0)"/>
      <use xlink:href="#DejaVuSans-74" transform="translate(155.078125 0)"/>
      <use xlink:href="#DejaVuSans-6f" transform="translate(194.287109 0)"/>
      <use xlink:href="#DejaVuSans-67" transform="translate(255.46875 0)"/>
      <use xlink:href="#DejaVuSans-72" transform="translate(318.945312 0)"/>
      <use xlink:href="#DejaVuSans-61" transform="translate(360.058594 0)"/>
      <use xlink:href="#DejaVuSans-6d" transform="translate(421.337891 0)"/>
     </g>
    </g>
    <g id="line2d_22">
     <path d="M 583.045 44.539375 
L 591.045 44.539375 
L 599.045 44.539375 
" style="fill: none; stroke: #4682b4; stroke-width: 2; stroke-linecap: square"/>
    </g>
    <g id="text_20">
     <!-- KDE -->
     <g transform="translate(605.445 47.339375) scale(0.08 -0.08)">
      <defs>
       <path id="DejaVuSans-4b" d="M 628 4666 
L 1259 4666 
L 1259 2694 
L 3353 4666 
L 4166 4666 
L 1850 2491 
L 4331 0 
L 3500 0 
L 1259 2247 
L 1259 0 
L 628 0 
L 628 4666 
z
" transform="scale(0.015625)"/>
       <path id="DejaVuSans-45" d="M 628 4666 
L 3578 4666 
L 3578 4134 
L 1259 4134 
L 1259 2753 
L 3481 2753 
L 3481 2222 
L 1259 2222 
L 1259 531 
L 3634 531 
L 3634 0 
L 628 0 
L 628 4666 
z
" transform="scale(0.015625)"/>
      </defs>
      <use xlink:href="#DejaVuSans-4b"/>
      <use xlink:href="#DejaVuSans-44" transform="translate(65.576172 0)"/>
      <use xlink:href="#DejaVuSans-45" transform="translate(142.578125 0)"/>
     </g>
    </g>
    <g id="line2d_23">
     <path d="M 583.045 56.281875 
L 591.045 56.281875 
L 599.045 56.281875 
" style="fill: none; stroke-dasharray: 7.4,3.2; stroke-dashoffset: 0; stroke: #ff0000; stroke-width: 2"/>
    </g>
    <g id="text_21">
     <!-- Normal (μ=35.49, σ=9.22) -->
     <g transform="translate(605.445 59.081875) scale(0.08 -0.08)">
      <defs>
       <path id="DejaVuSans-4e" d="M 628 4666 
L 1478 4666 
L 3547 763 
L 3547 4666 
L 4159 4666 
L 4159 0 
L 3309 0 
L 1241 3903 
L 1241 0 
L 628 0 
L 628 4666 
z
" transform="scale(0.015625)"/>
       <path id="DejaVuSans-3bc" d="M 544 -1331 
L 544 3500 
L 1119 3500 
L 1119 1325 
Q 1119 872 1334 640 
Q 1550 409 1972 409 
Q 2434 409 2667 671 
Q 2900 934 2900 1459 
L 2900 3500 
L 3475 3500 
L 3475 806 
Q 3475 619 3529 530 
Q 3584 441 3700 441 
Q 3728 441 3778 458 
Q 3828 475 3916 513 
L 3916 50 
Q 3788 -22 3673 -56 
Q 3559 -91 3450 -91 
Q 3234 -91 3106 31 
Q 2978 153 2931 403 
Q 2775 156 2548 32 
Q 2322 -91 2016 -91 
Q 1697 -91 1473 31 
Q 1250 153 1119 397 
L 1119 -1331 
L 544 -1331 
z
" transform="scale(0.015625)"/>
       <path id="DejaVuSans-3d" d="M 678 2906 
L 4684 2906 
L 4684 2381 
L 678 2381 
L 678 2906 
z
M 678 1631 
L 4684 1631 
L 4684 1100 
L 678 1100 
L 678 1631 
z
" transform="scale(0.015625)"/>
       <path id="DejaVuSans-39" d="M 703 97 
L 703 672 
Q 941 559 1184 500 
Q 1428 441 1663 441 
Q 2288 441 2617 861 
Q 2947 1281 2994 2138 
Q 2813 1869 2534 1725 
Q 2256 1581 1919 1581 
Q 1219 1581 811 2004 
Q 403 2428 403 3163 
Q 403 3881 828 4315 
Q 1253 4750 1959 4750 
Q 2769 4750 3195 4129 
Q 3622 3509 3622 2328 
Q 3622 1225 3098 567 
Q 2575 -91 1691 -91 
Q 1453 -91 1209 -44 
Q 966 3 703 97 
z
M 1959 2075 
Q 2384 2075 2632 2365 
Q 2881 2656 2881 3163 
Q 2881 3666 2632 3958 
Q 2384 4250 1959 4250 
Q 1534 4250 1286 3958 
Q 1038 3666 1038 3163 
Q 1038 2656 1286 2365 
Q 1534 2075 1959 2075 
z
" transform="scale(0.015625)"/>
       <path id="DejaVuSans-2c" d="M 750 794 
L 1409 794 
L 1409 256 
L 897 -744 
L 494 -744 
L 750 256 
L 750 794 
z
" transform="scale(0.015625)"/>
      </defs>
      <use xlink:href="#DejaVuSans-4e"/>
      <use xlink:href="#DejaVuSans-6f" transform="translate(74.804688 0)"/>
      <use xlink:href="#DejaVuSans-72" transform="translate(135.986328 0)"/>
      <use xlink:href="#DejaVuSans-6d" transform="translate(175.349609 0)"/>
      <use xlink:href="#DejaVuSans-61" transform="translate(272.761719 0)"/>
      <use xlink:href="#DejaVuSans-6c" transform="translate(334.041016 0)"/>
      <use xlink:href="#DejaVuSans-20" transform="translate(361.824219 0)"/>
      <use xlink:href="#DejaVuSans-28" transform="translate(393.611328 0)"/>
      <use xlink:href="#DejaVuSans-3bc" transform="translate(432.625 0)"/>
      <use xlink:href="#DejaVuSans-3d" transform="translate(496.248047 0)"/>
      <use xlink:href="#DejaVuSans-33" transform="translate(580.037109 0)"/>
      <use xlink:href="#DejaVuSans-35" transform="translate(643.660156 0)"/>
      <use xlink:href="#DejaVuSans-2e" transform="translate(707.283203 0)"/>
      <use xlink:href="#DejaVuSans-34" transform="translate(739.070312 0)"/>
      <use xlink:href="#DejaVuSans-39" transform="translate(802.693359 0)"/>
      <use xlink:href="#DejaVuSans-2c" transform="translate(866.316406 0)"/>
      <use xlink:href="#DejaVuSans-20" transform="translate(898.103516 0)"/>
      <use xlink:href="#DejaVuSans-3c3" transform="translate(929.890625 0)"/>
      <use xlink:href="#DejaVuSans-3d" transform="translate(993.269531 0)"/>
      <use xlink:href="#DejaVuSans-39" transform="translate(1077.058594 0)"/>
      <use xlink:href="#DejaVuSans-2e" transform="translate(1140.681641 0)"/>
      <use xlink:href="#DejaVuSans-32" transform="translate(1172.46875 0)"/>
      <use xlink:href="#DejaVuSans-32" transform="translate(1236.091797 0)"/>
      <use xlink:href="#DejaVuSans-29" transform="translate(1299.714844 0)"/>
     </g>
    </g>
    <g id="line2d_24">
     <path d="M 583.045 68.024375 
L 591.045 68.024375 
L 599.045 68.024375 
" style="fill: none; stroke-dasharray: 2.96,1.28; stroke-dashoffset: 0; stroke: #008000; stroke-width: 0.8"/>
    </g>
    <g id="text_22">
     <!-- Mean = 35.4855 -->
     <g transform="translate(605.445 70.824375) scale(0.08 -0.08)">
      <defs>
       <path id="DejaVuSans-4d" d="M 628 4666 
L 1569 4666 
L 2759 1491 
L 3956 4666 
L 4897 4666 
L 4897 0 
L 4281 0 
L 4281 4097 
L 3078 897 
L 2444 897 
L 1241 4097 
L 1241 0 
L 628 0 
L 628 4666 
z
" transform="scale(0.015625)"/>
      </defs>
      <use xlink:href="#DejaVuSans-4d"/>
      <use xlink:href="#DejaVuSans-65" transform="translate(86.279297 0)"/>
      <use xlink:href="#DejaVuSans-61" transform="translate(147.802734 0)"/>
      <use xlink:href="#DejaVuSans-6e" transform="translate(209.082031 0)"/>
      <use xlink:href="#DejaVuSans-20" transform="translate(272.460938 0)"/>
      <use xlink:href="#DejaVuSans-3d" transform="translate(304.248047 0)"/>
      <use xlink:href="#DejaVuSans-20" transform="translate(388.037109 0)"/>
      <use xlink:href="#DejaVuSans-33" transform="translate(419.824219 0)"/>
      <use xlink:href="#DejaVuSans-35" transform="translate(483.447266 0)"/>
      <use xlink:href="#DejaVuSans-2e" transform="translate(547.070312 0)"/>
      <use xlink:href="#DejaVuSans-34" transform="translate(578.857422 0)"/>
      <use xlink:href="#DejaVuSans-38" transform="translate(642.480469 0)"/>
      <use xlink:href="#DejaVuSans-35" transform="translate(706.103516 0)"/>
      <use xlink:href="#DejaVuSans-35" transform="translate(769.726562 0)"/>
     </g>
    </g>
    <g id="line2d_25">
     <path d="M 583.045 79.766875 
L 591.045 79.766875 
L 599.045 79.766875 
" style="fill: none; stroke-dasharray: 2.59,1.12; stroke-dashoffset: 0; stroke: #ffa500; stroke-width: 0.7"/>
    </g>
    <g id="text_23">
     <!-- Mean ± 3σ -->
     <g transform="translate(605.445 82.566875) scale(0.08 -0.08)">
      <use xlink:href="#DejaVuSans-4d"/>
      <use xlink:href="#DejaVuSans-65" transform="translate(86.279297 0)"/>
      <use xlink:href="#DejaVuSans-61" transform="translate(147.802734 0)"/>
      <use xlink:href="#DejaVuSans-6e" transform="translate(209.082031 0)"/>
      <use xlink:href="#DejaVuSans-20" transform="translate(272.460938 0)"/>
      <use xlink:href="#DejaVuSans-b1" transform="translate(304.248047 0)"/>
      <use xlink:href="#DejaVuSans-20" transform="translate(388.037109 0)"/>
      <use xlink:href="#DejaVuSans-33" transform="translate(419.824219 0)"/>
      <use xlink:href="#DejaVuSans-3c3" transform="translate(483.447266 0)"/>
     </g>
    </g>
    <g id="line2d_26">
     <path d="M 583.045 91.509375 
L 591.045 91.509375 
L 599.045 91.509375 
" style="fill: none; stroke: #000000; stroke-opacity: 0; stroke-width: 1.5; stroke-linecap: square"/>
    </g>
    <g id="text_24">
     <!-- Median = 34.0000 -->
     <g transform="translate(605.445 94.309375) scale(0.08 -0.08)">
      <defs>
       <path id="DejaVuSans-64" d="M 2906 2969 
L 2906 4863 
L 3481 4863 
L 3481 0 
L 2906 0 
L 2906 525 
Q 2725 213 2448 61 
Q 2172 -91 1784 -91 
Q 1150 -91 751 415 
Q 353 922 353 1747 
Q 353 2572 751 3078 
Q 1150 3584 1784 3584 
Q 2172 3584 2448 3432 
Q 2725 3281 2906 2969 
z
M 947 1747 
Q 947 1113 1208 752 
Q 1469 391 1925 391 
Q 2381 391 2643 752 
Q 2906 1113 2906 1747 
Q 2906 2381 2643 2742 
Q 2381 3103 1925 3103 
Q 1469 3103 1208 2742 
Q 947 2381 947 1747 
z
" transform="scale(0.015625)"/>
      </defs>
      <use xlink:href="#DejaVuSans-4d"/>
      <use xlink:href="#DejaVuSans-65" transform="translate(86.279297 0)"/>
      <use xlink:href="#DejaVuSans-64" transform="translate(147.802734 0)"/>
      <use xlink:href="#DejaVuSans-69" transform="translate(211.279297 0)"/>
      <use xlink:href="#DejaVuSans-61" transform="translate(239.0625 0)"/>
      <use xlink:href="#DejaVuSans-6e" transform="translate(300.341797 0)"/>
      <use xlink:href="#DejaVuSans-20" transform="translate(363.720703 0)"/>
      <use xlink:href="#DejaVuSans-3d" transform="translate(395.507812 0)"/>
      <use xlink:href="#DejaVuSans-20" transform="translate(479.296875 0)"/>
      <use xlink:href="#DejaVuSans-33" transform="translate(511.083984 0)"/>
      <use xlink:href="#DejaVuSans-34" transform="translate(574.707031 0)"/>
      <use xlink:href="#DejaVuSans-2e" transform="translate(638.330078 0)"/>
      <use xlink:href="#DejaVuSans-30" transform="translate(670.117188 0)"/>
      <use xlink:href="#DejaVuSans-30" transform="translate(733.740234 0)"/>
      <use xlink:href="#DejaVuSans-30" transform="translate(797.363281 0)"/>
      <use xlink:href="#DejaVuSans-30" transform="translate(860.986328 0)"/>
     </g>
    </g>
    <g id="line2d_27">
     <path d="M 583.045 103.251875 
L 591.045 103.251875 
L 599.045 103.251875 
" style="fill: none; stroke: #000000; stroke-opacity: 0; stroke-width: 1.5; stroke-linecap: square"/>
    </g>
    <g id="text_25">
     <!-- Std    = 9.2179 -->
     <g transform="translate(605.445 106.051875) scale(0.08 -0.08)">
      <defs>
       <path id="DejaVuSans-53" d="M 3425 4513 
L 3425 3897 
Q 3066 4069 2747 4153 
Q 2428 4238 2131 4238 
Q 1616 4238 1336 4038 
Q 1056 3838 1056 3469 
Q 1056 3159 1242 3001 
Q 1428 2844 1947 2747 
L 2328 2669 
Q 3034 2534 3370 2195 
Q 3706 1856 3706 1288 
Q 3706 609 3251 259 
Q 2797 -91 1919 -91 
Q 1588 -91 1214 -16 
Q 841 59 441 206 
L 441 856 
Q 825 641 1194 531 
Q 1563 422 1919 422 
Q 2459 422 2753 634 
Q 3047 847 3047 1241 
Q 3047 1584 2836 1778 
Q 2625 1972 2144 2069 
L 1759 2144 
Q 1053 2284 737 2584 
Q 422 2884 422 3419 
Q 422 4038 858 4394 
Q 1294 4750 2059 4750 
Q 2388 4750 2728 4690 
Q 3069 4631 3425 4513 
z
" transform="scale(0.015625)"/>
      </defs>
      <use xlink:href="#DejaVuSans-53"/>
      <use xlink:href="#DejaVuSans-74" transform="translate(63.476562 0)"/>
      <use xlink:href="#DejaVuSans-64" transform="translate(102.685547 0)"/>
      <use xlink:href="#DejaVuSans-20" transform="translate(166.162109 0)"/>
      <use xlink:href="#DejaVuSans-20" transform="translate(197.949219 0)"/>
      <use xlink:href="#DejaVuSans-20" transform="translate(229.736328 0)"/>
      <use xlink:href="#DejaVuSans-20" transform="translate(261.523438 0)"/>
      <use xlink:href="#DejaVuSans-3d" transform="translate(293.310547 0)"/>
      <use xlink:href="#DejaVuSans-20" transform="translate(377.099609 0)"/>
      <use xlink:href="#DejaVuSans-39" transform="translate(408.886719 0)"/>
      <use xlink:href="#DejaVuSans-2e" transform="translate(472.509766 0)"/>
      <use xlink:href="#DejaVuSans-32" transform="translate(504.296875 0)"/>
      <use xlink:href="#DejaVuSans-31" transform="translate(567.919922 0)"/>
      <use xlink:href="#DejaVuSans-37" transform="translate(631.542969 0)"/>
      <use xlink:href="#DejaVuSans-39" transform="translate(695.166016 0)"/>
     </g>
    </g>
   </g>
  </g>
 </g>
 <defs>
  <clipPath id="p99cbd9f01b">
   <rect x="50.14375" y="22.318125" width="669.6" height="332.64"/>
  </clipPath>
 </defs>
</svg>
