<?xml version="1.0" encoding="utf-8" standalone="no"?>
<!DOCTYPE svg PUBLIC "-//W3C//DTD SVG 1.1//EN"
  "http://www.w3.org/Graphics/SVG/1.1/DTD/svg11.dtd">
<svg xmlns:xlink="http://www.w3.org/1999/xlink" width="711.040625pt" height="392.514375pt" viewBox="0 0 711.040625 392.514375" xmlns="http://www.w3.org/2000/svg" version="1.1">
 <metadata>
  <rdf:RDF xmlns:dc="http://purl.org/dc/elements/1.1/" xmlns:cc="http://creativecommons.org/ns#" xmlns:rdf="http://www.w3.org/1999/02/22-rdf-syntax-ns#">
   <cc:Work>
    <dc:type rdf:resource="http://purl.org/dc/dcmitype/StillImage"/>
    <dc:date>2026-06-08T20:24:02.655767</dc:date>
    <dc:format>image/svg+xml</dc:format>
    <dc:creator>
     <cc:Agent>
      <dc:title>Matplotlib v3.10.9, https://matplotlib.org/</dc:title>
     </cc:Agent>
    </dc:creator>
   </cc:Work>
  </rdf:RDF>
 </metadata>
 <defs>
  <style type="text/css">*{stroke-linejoin: round; stroke-linecap: butt}</style>
 </defs>
 <g id="figure_1">
  <g id="patch_1">
   <path d="M 0 392.514375 
L 711.040625 392.514375 
L 711.040625 0 
L 0 0 
z
" style="fill: #ffffff"/>
  </g>
  <g id="axes_1">
   <g id="patch_2">
    <path d="M 34.240625 354.958125 
L 703.840625 354.958125 
L 703.840625 22.318125 
L 34.240625 22.318125 
z
" style="fill: #ffffff"/>
   </g>
   <g id="patch_3">
    <path d="M 180.14809 354.958125 
L 186.237672 354.958125 
L 186.237672 122.324306 
L 180.14809 122.324306 
z
" clip-path="url(#p62016f9777)" style="fill: #4682b4; opacity: 0.4"/>
   </g>
   <g id="patch_4">
    <path d="M 186.237672 354.958125 
L 192.327255 354.958125 
L 192.327255 203.383682 
L 186.237672 203.383682 
z
" clip-path="url(#p62016f9777)" style="fill: #4682b4; opacity: 0.4"/>
   </g>
   <g id="patch_5">
    <path d="M 192.327255 354.958125 
L 198.416837 354.958125 
L 198.416837 333.304633 
L 192.327255 333.304633 
z
" clip-path="url(#p62016f9777)" style="fill: #4682b4; opacity: 0.4"/>
   </g>
   <g id="patch_6">
    <path d="M 198.416837 354.958125 
L 204.506419 354.958125 
L 204.506419 38.158125 
L 198.416837 38.158125 
z
" clip-path="url(#p62016f9777)" style="fill: #4682b4; opacity: 0.4"/>
   </g>
   <g id="patch_7">
    <path d="M 204.506419 354.958125 
L 210.596002 354.958125 
L 210.596002 208.467546 
L 204.506419 208.467546 
z
" clip-path="url(#p62016f9777)" style="fill: #4682b4; opacity: 0.4"/>
   </g>
   <g id="patch_8">
    <path d="M 210.596002 354.958125 
L 216.685584 354.958125 
L 216.685584 207.431944 
L 210.596002 207.431944 
z
" clip-path="url(#p62016f9777)" style="fill: #4682b4; opacity: 0.4"/>
   </g>
   <g id="patch_9">
    <path d="M 216.685584 354.958125 
L 222.775167 354.958125 
L 222.775167 293.669329 
L 216.685584 293.669329 
z
" clip-path="url(#p62016f9777)" style="fill: #4682b4; opacity: 0.4"/>
   </g>
   <g id="patch_10">
    <path d="M 222.775167 354.958125 
L 228.864749 354.958125 
L 228.864749 256.293519 
L 222.775167 256.293519 
z
" clip-path="url(#p62016f9777)" style="fill: #4682b4; opacity: 0.4"/>
   </g>
   <g id="patch_11">
    <path d="M 228.864749 354.958125 
L 234.954331 354.958125 
L 234.954331 299.600502 
L 228.864749 299.600502 
z
" clip-path="url(#p62016f9777)" style="fill: #4682b4; opacity: 0.4"/>
   </g>
   <g id="patch_12">
    <path d="M 234.954331 354.958125 
L 241.043914 354.958125 
L 241.043914 217.976253 
L 234.954331 217.976253 
z
" clip-path="url(#p62016f9777)" style="fill: #4682b4; opacity: 0.4"/>
   </g>
   <g id="patch_13">
    <path d="M 241.043914 354.958125 
L 247.133496 354.958125 
L 247.133496 284.443058 
L 241.043914 284.443058 
z
" clip-path="url(#p62016f9777)" style="fill: #4682b4; opacity: 0.4"/>
   </g>
   <g id="patch_14">
    <path d="M 247.133496 354.958125 
L 253.223078 354.958125 
L 253.223078 250.456491 
L 247.133496 250.456491 
z
" clip-path="url(#p62016f9777)" style="fill: #4682b4; opacity: 0.4"/>
   </g>
   <g id="patch_15">
    <path d="M 253.223078 354.958125 
L 259.312661 354.958125 
L 259.312661 289.621067 
L 253.223078 289.621067 
z
" clip-path="url(#p62016f9777)" style="fill: #4682b4; opacity: 0.4"/>
   </g>
   <g id="patch_16">
    <path d="M 259.312661 354.958125 
L 265.402243 354.958125 
L 265.402243 211.197768 
L 259.312661 211.197768 
z
" clip-path="url(#p62016f9777)" style="fill: #4682b4; opacity: 0.4"/>
   </g>
   <g id="patch_17">
    <path d="M 265.402243 354.958125 
L 271.491825 354.958125 
L 271.491825 333.398779 
L 265.402243 333.398779 
z
" clip-path="url(#p62016f9777)" style="fill: #4682b4; opacity: 0.4"/>
   </g>
   <g id="patch_18">
    <path d="M 271.491825 354.958125 
L 277.581408 354.958125 
L 277.581408 211.103623 
L 271.491825 211.103623 
z
" clip-path="url(#p62016f9777)" style="fill: #4682b4; opacity: 0.4"/>
   </g>
   <g id="patch_19">
    <path d="M 277.581408 354.958125 
L 283.67099 354.958125 
L 283.67099 286.231825 
L 277.581408 286.231825 
z
" clip-path="url(#p62016f9777)" style="fill: #4682b4; opacity: 0.4"/>
   </g>
   <g id="patch_20">
    <path d="M 283.67099 354.958125 
L 289.760573 354.958125 
L 289.760573 310.803831 
L 283.67099 310.803831 
z
" clip-path="url(#p62016f9777)" style="fill: #4682b4; opacity: 0.4"/>
   </g>
   <g id="patch_21">
    <path d="M 289.760573 354.958125 
L 295.850155 354.958125 
L 295.850155 227.296669 
L 289.760573 227.296669 
z
" clip-path="url(#p62016f9777)" style="fill: #4682b4; opacity: 0.4"/>
   </g>
   <g id="patch_22">
    <path d="M 295.850155 354.958125 
L 301.939737 354.958125 
L 301.939737 322.007159 
L 295.850155 322.007159 
z
" clip-path="url(#p62016f9777)" style="fill: #4682b4; opacity: 0.4"/>
   </g>
   <g id="patch_23">
    <path d="M 301.939737 354.958125 
L 308.02932 354.958125 
L 308.02932 305.908259 
L 301.939737 305.908259 
z
" clip-path="url(#p62016f9777)" style="fill: #4682b4; opacity: 0.4"/>
   </g>
   <g id="patch_24">
    <path d="M 308.02932 354.958125 
L 314.118902 354.958125 
L 314.118902 332.551468 
L 308.02932 332.551468 
z
" clip-path="url(#p62016f9777)" style="fill: #4682b4; opacity: 0.4"/>
   </g>
   <g id="patch_25">
    <path d="M 314.118902 354.958125 
L 320.208484 354.958125 
L 320.208484 275.781661 
L 314.118902 275.781661 
z
" clip-path="url(#p62016f9777)" style="fill: #4682b4; opacity: 0.4"/>
   </g>
   <g id="patch_26">
    <path d="M 320.208484 354.958125 
L 326.298067 354.958125 
L 326.298067 302.801453 
L 320.208484 302.801453 
z
" clip-path="url(#p62016f9777)" style="fill: #4682b4; opacity: 0.4"/>
   </g>
   <g id="patch_27">
    <path d="M 326.298067 354.958125 
L 332.387649 354.958125 
L 332.387649 329.350517 
L 326.298067 329.350517 
z
" clip-path="url(#p62016f9777)" style="fill: #4682b4; opacity: 0.4"/>
   </g>
   <g id="patch_28">
    <path d="M 332.387649 354.958125 
L 338.477231 354.958125 
L 338.477231 325.490547 
L 332.387649 325.490547 
z
" clip-path="url(#p62016f9777)" style="fill: #4682b4; opacity: 0.4"/>
   </g>
   <g id="patch_29">
    <path d="M 338.477231 354.958125 
L 344.566814 354.958125 
L 344.566814 338.670933 
L 338.477231 338.670933 
z
" clip-path="url(#p62016f9777)" style="fill: #4682b4; opacity: 0.4"/>
   </g>
   <g id="patch_30">
    <path d="M 344.566814 354.958125 
L 350.656396 354.958125 
L 350.656396 312.780889 
L 344.566814 312.780889 
z
" clip-path="url(#p62016f9777)" style="fill: #4682b4; opacity: 0.4"/>
   </g>
   <g id="patch_31">
    <path d="M 350.656396 354.958125 
L 356.745978 354.958125 
L 356.745978 272.015837 
L 350.656396 272.015837 
z
" clip-path="url(#p62016f9777)" style="fill: #4682b4; opacity: 0.4"/>
   </g>
   <g id="patch_32">
    <path d="M 356.745978 354.958125 
L 362.835561 354.958125 
L 362.835561 348.273786 
L 356.745978 348.273786 
z
" clip-path="url(#p62016f9777)" style="fill: #4682b4; opacity: 0.4"/>
   </g>
   <g id="patch_33">
    <path d="M 362.835561 354.958125 
L 368.925143 354.958125 
L 368.925143 340.271409 
L 362.835561 340.271409 
z
" clip-path="url(#p62016f9777)" style="fill: #4682b4; opacity: 0.4"/>
   </g>
   <g id="patch_34">
    <path d="M 368.925143 354.958125 
L 375.014726 354.958125 
L 375.014726 313.063326 
L 368.925143 313.063326 
z
" clip-path="url(#p62016f9777)" style="fill: #4682b4; opacity: 0.4"/>
   </g>
   <g id="patch_35">
    <path d="M 375.014726 354.958125 
L 381.104308 354.958125 
L 381.104308 347.614767 
L 375.014726 347.614767 
z
" clip-path="url(#p62016f9777)" style="fill: #4682b4; opacity: 0.4"/>
   </g>
   <g id="patch_36">
    <path d="M 381.104308 354.958125 
L 387.19389 354.958125 
L 387.19389 339.141661 
L 381.104308 339.141661 
z
" clip-path="url(#p62016f9777)" style="fill: #4682b4; opacity: 0.4"/>
   </g>
   <g id="patch_37">
    <path d="M 387.19389 354.958125 
L 393.283473 354.958125 
L 393.283473 347.144039 
L 387.19389 347.144039 
z
" clip-path="url(#p62016f9777)" style="fill: #4682b4; opacity: 0.4"/>
   </g>
   <g id="patch_38">
    <path d="M 393.283473 354.958125 
L 399.373055 354.958125 
L 399.373055 347.144039 
L 393.283473 347.144039 
z
" clip-path="url(#p62016f9777)" style="fill: #4682b4; opacity: 0.4"/>
   </g>
   <g id="patch_39">
    <path d="M 399.373055 354.958125 
L 405.462637 354.958125 
L 405.462637 332.269031 
L 399.373055 332.269031 
z
" clip-path="url(#p62016f9777)" style="fill: #4682b4; opacity: 0.4"/>
   </g>
   <g id="patch_40">
    <path d="M 405.462637 354.958125 
L 411.55222 354.958125 
L 411.55222 347.426476 
L 405.462637 347.426476 
z
" clip-path="url(#p62016f9777)" style="fill: #4682b4; opacity: 0.4"/>
   </g>
   <g id="patch_41">
    <path d="M 411.55222 354.958125 
L 417.641802 354.958125 
L 417.641802 347.520621 
L 411.55222 347.520621 
z
" clip-path="url(#p62016f9777)" style="fill: #4682b4; opacity: 0.4"/>
   </g>
   <g id="patch_42">
    <path d="M 417.641802 354.958125 
L 423.731384 354.958125 
L 423.731384 348.932806 
L 417.641802 348.932806 
z
" clip-path="url(#p62016f9777)" style="fill: #4682b4; opacity: 0.4"/>
   </g>
   <g id="patch_43">
    <path d="M 423.731384 354.958125 
L 429.820967 354.958125 
L 429.820967 285.196223 
L 423.731384 285.196223 
z
" clip-path="url(#p62016f9777)" style="fill: #4682b4; opacity: 0.4"/>
   </g>
   <g id="patch_44">
    <path d="M 429.820967 354.958125 
L 435.910549 354.958125 
L 435.910549 353.075213 
L 429.820967 353.075213 
z
" clip-path="url(#p62016f9777)" style="fill: #4682b4; opacity: 0.4"/>
   </g>
   <g id="patch_45">
    <path d="M 435.910549 354.958125 
L 442.000132 354.958125 
L 442.000132 354.016669 
L 435.910549 354.016669 
z
" clip-path="url(#p62016f9777)" style="fill: #4682b4; opacity: 0.4"/>
   </g>
   <g id="patch_46">
    <path d="M 442.000132 354.958125 
L 448.089714 354.958125 
L 448.089714 354.393251 
L 442.000132 354.393251 
z
" clip-path="url(#p62016f9777)" style="fill: #4682b4; opacity: 0.4"/>
   </g>
   <g id="patch_47">
    <path d="M 448.089714 354.958125 
L 454.179296 354.958125 
L 454.179296 352.981067 
L 448.089714 352.981067 
z
" clip-path="url(#p62016f9777)" style="fill: #4682b4; opacity: 0.4"/>
   </g>
   <g id="patch_48">
    <path d="M 454.179296 354.958125 
L 460.268879 354.958125 
L 460.268879 353.263504 
L 454.179296 353.263504 
z
" clip-path="url(#p62016f9777)" style="fill: #4682b4; opacity: 0.4"/>
   </g>
   <g id="patch_49">
    <path d="M 460.268879 354.958125 
L 466.358461 354.958125 
L 466.358461 353.922523 
L 460.268879 353.922523 
z
" clip-path="url(#p62016f9777)" style="fill: #4682b4; opacity: 0.4"/>
   </g>
   <g id="patch_50">
    <path d="M 466.358461 354.958125 
L 472.448043 354.958125 
L 472.448043 354.393251 
L 466.358461 354.393251 
z
" clip-path="url(#p62016f9777)" style="fill: #4682b4; opacity: 0.4"/>
   </g>
   <g id="patch_51">
    <path d="M 472.448043 354.958125 
L 478.537626 354.958125 
L 478.537626 353.451795 
L 472.448043 353.451795 
z
" clip-path="url(#p62016f9777)" style="fill: #4682b4; opacity: 0.4"/>
   </g>
   <g id="patch_52">
    <path d="M 478.537626 354.958125 
L 484.627208 354.958125 
L 484.627208 353.075213 
L 478.537626 353.075213 
z
" clip-path="url(#p62016f9777)" style="fill: #4682b4; opacity: 0.4"/>
   </g>
   <g id="patch_53">
    <path d="M 484.627208 354.958125 
L 490.71679 354.958125 
L 490.71679 354.299106 
L 484.627208 354.299106 
z
" clip-path="url(#p62016f9777)" style="fill: #4682b4; opacity: 0.4"/>
   </g>
   <g id="patch_54">
    <path d="M 490.71679 354.958125 
L 496.806373 354.958125 
L 496.806373 354.299106 
L 490.71679 354.299106 
z
" clip-path="url(#p62016f9777)" style="fill: #4682b4; opacity: 0.4"/>
   </g>
   <g id="patch_55">
    <path d="M 496.806373 354.958125 
L 502.895955 354.958125 
L 502.895955 354.675688 
L 496.806373 354.675688 
z
" clip-path="url(#p62016f9777)" style="fill: #4682b4; opacity: 0.4"/>
   </g>
   <g id="patch_56">
    <path d="M 502.895955 354.958125 
L 508.985538 354.958125 
L 508.985538 354.675688 
L 502.895955 354.675688 
z
" clip-path="url(#p62016f9777)" style="fill: #4682b4; opacity: 0.4"/>
   </g>
   <g id="patch_57">
    <path d="M 508.985538 354.958125 
L 515.07512 354.958125 
L 515.07512 354.299106 
L 508.985538 354.299106 
z
" clip-path="url(#p62016f9777)" style="fill: #4682b4; opacity: 0.4"/>
   </g>
   <g id="patch_58">
    <path d="M 515.07512 354.958125 
L 521.164702 354.958125 
L 521.164702 354.863979 
L 515.07512 354.863979 
z
" clip-path="url(#p62016f9777)" style="fill: #4682b4; opacity: 0.4"/>
   </g>
   <g id="patch_59">
    <path d="M 521.164702 354.958125 
L 527.254285 354.958125 
L 527.254285 354.20496 
L 521.164702 354.20496 
z
" clip-path="url(#p62016f9777)" style="fill: #4682b4; opacity: 0.4"/>
   </g>
   <g id="patch_60">
    <path d="M 527.254285 354.958125 
L 533.343867 354.958125 
L 533.343867 354.393251 
L 527.254285 354.393251 
z
" clip-path="url(#p62016f9777)" style="fill: #4682b4; opacity: 0.4"/>
   </g>
   <g id="patch_61">
    <path d="M 533.343867 354.958125 
L 539.433449 354.958125 
L 539.433449 354.487397 
L 533.343867 354.487397 
z
" clip-path="url(#p62016f9777)" style="fill: #4682b4; opacity: 0.4"/>
   </g>
   <g id="patch_62">
    <path d="M 539.433449 354.958125 
L 545.523032 354.958125 
L 545.523032 354.769834 
L 539.433449 354.769834 
z
" clip-path="url(#p62016f9777)" style="fill: #4682b4; opacity: 0.4"/>
   </g>
   <g id="patch_63">
    <path d="M 545.523032 354.958125 
L 551.612614 354.958125 
L 551.612614 354.581543 
L 545.523032 354.581543 
z
" clip-path="url(#p62016f9777)" style="fill: #4682b4; opacity: 0.4"/>
   </g>
   <g id="patch_64">
    <path d="M 551.612614 354.958125 
L 557.702196 354.958125 
L 557.702196 354.863979 
L 551.612614 354.863979 
z
" clip-path="url(#p62016f9777)" style="fill: #4682b4; opacity: 0.4"/>
   </g>
   <g id="patch_65">
    <path d="M 557.702196 354.958125 
L 563.791779 354.958125 
L 563.791779 354.958125 
L 557.702196 354.958125 
z
" clip-path="url(#p62016f9777)" style="fill: #4682b4; opacity: 0.4"/>
   </g>
   <g id="patch_66">
    <path d="M 563.791779 354.958125 
L 569.881361 354.958125 
L 569.881361 354.769834 
L 563.791779 354.769834 
z
" clip-path="url(#p62016f9777)" style="fill: #4682b4; opacity: 0.4"/>
   </g>
   <g id="patch_67">
    <path d="M 569.881361 354.958125 
L 575.970944 354.958125 
L 575.970944 354.769834 
L 569.881361 354.769834 
z
" clip-path="url(#p62016f9777)" style="fill: #4682b4; opacity: 0.4"/>
   </g>
   <g id="patch_68">
    <path d="M 575.970944 354.958125 
L 582.060526 354.958125 
L 582.060526 354.958125 
L 575.970944 354.958125 
z
" clip-path="url(#p62016f9777)" style="fill: #4682b4; opacity: 0.4"/>
   </g>
   <g id="patch_69">
    <path d="M 582.060526 354.958125 
L 588.150108 354.958125 
L 588.150108 354.958125 
L 582.060526 354.958125 
z
" clip-path="url(#p62016f9777)" style="fill: #4682b4; opacity: 0.4"/>
   </g>
   <g id="patch_70">
    <path d="M 588.150108 354.958125 
L 594.239691 354.958125 
L 594.239691 354.958125 
L 588.150108 354.958125 
z
" clip-path="url(#p62016f9777)" style="fill: #4682b4; opacity: 0.4"/>
   </g>
   <g id="patch_71">
    <path d="M 594.239691 354.958125 
L 600.329273 354.958125 
L 600.329273 354.958125 
L 594.239691 354.958125 
z
" clip-path="url(#p62016f9777)" style="fill: #4682b4; opacity: 0.4"/>
   </g>
   <g id="patch_72">
    <path d="M 600.329273 354.958125 
L 606.418855 354.958125 
L 606.418855 354.958125 
L 600.329273 354.958125 
z
" clip-path="url(#p62016f9777)" style="fill: #4682b4; opacity: 0.4"/>
   </g>
   <g id="patch_73">
    <path d="M 606.418855 354.958125 
L 612.508438 354.958125 
L 612.508438 354.958125 
L 606.418855 354.958125 
z
" clip-path="url(#p62016f9777)" style="fill: #4682b4; opacity: 0.4"/>
   </g>
   <g id="patch_74">
    <path d="M 612.508438 354.958125 
L 618.59802 354.958125 
L 618.59802 354.958125 
L 612.508438 354.958125 
z
" clip-path="url(#p62016f9777)" style="fill: #4682b4; opacity: 0.4"/>
   </g>
   <g id="patch_75">
    <path d="M 618.59802 354.958125 
L 624.687602 354.958125 
L 624.687602 354.958125 
L 618.59802 354.958125 
z
" clip-path="url(#p62016f9777)" style="fill: #4682b4; opacity: 0.4"/>
   </g>
   <g id="patch_76">
    <path d="M 624.687602 354.958125 
L 630.777185 354.958125 
L 630.777185 354.958125 
L 624.687602 354.958125 
z
" clip-path="url(#p62016f9777)" style="fill: #4682b4; opacity: 0.4"/>
   </g>
   <g id="patch_77">
    <path d="M 630.777185 354.958125 
L 636.866767 354.958125 
L 636.866767 354.958125 
L 630.777185 354.958125 
z
" clip-path="url(#p62016f9777)" style="fill: #4682b4; opacity: 0.4"/>
   </g>
   <g id="patch_78">
    <path d="M 636.866767 354.958125 
L 642.95635 354.958125 
L 642.95635 354.958125 
L 636.866767 354.958125 
z
" clip-path="url(#p62016f9777)" style="fill: #4682b4; opacity: 0.4"/>
   </g>
   <g id="patch_79">
    <path d="M 642.95635 354.958125 
L 649.045932 354.958125 
L 649.045932 354.958125 
L 642.95635 354.958125 
z
" clip-path="url(#p62016f9777)" style="fill: #4682b4; opacity: 0.4"/>
   </g>
   <g id="patch_80">
    <path d="M 649.045932 354.958125 
L 655.135514 354.958125 
L 655.135514 354.958125 
L 649.045932 354.958125 
z
" clip-path="url(#p62016f9777)" style="fill: #4682b4; opacity: 0.4"/>
   </g>
   <g id="patch_81">
    <path d="M 655.135514 354.958125 
L 661.225097 354.958125 
L 661.225097 354.958125 
L 655.135514 354.958125 
z
" clip-path="url(#p62016f9777)" style="fill: #4682b4; opacity: 0.4"/>
   </g>
   <g id="patch_82">
    <path d="M 661.225097 354.958125 
L 667.314679 354.958125 
L 667.314679 354.958125 
L 661.225097 354.958125 
z
" clip-path="url(#p62016f9777)" style="fill: #4682b4; opacity: 0.4"/>
   </g>
   <g id="patch_83">
    <path d="M 667.314679 354.958125 
L 673.404261 354.958125 
L 673.404261 354.863979 
L 667.314679 354.863979 
z
" clip-path="url(#p62016f9777)" style="fill: #4682b4; opacity: 0.4"/>
   </g>
   <g id="matplotlib.axis_1">
    <g id="xtick_1">
     <g id="line2d_1">
      <defs>
       <path id="me8bfca371a" d="M 0 0 
L 0 3.5 
" style="stroke: #000000; stroke-width: 0.8"/>
      </defs>
      <g>
       <use xlink:href="#me8bfca371a" x="75.517993" y="354.958125" style="stroke: #000000; stroke-width: 0.8"/>
      </g>
     </g>
     <g id="text_1">
      <!-- −0.2 -->
      <g transform="translate(63.376587 369.556562) scale(0.1 -0.1)">
       <defs>
        <path id="DejaVuSans-2212" d="M 678 2272 
L 4684 2272 
L 4684 1741 
L 678 1741 
L 678 2272 
z
" transform="scale(0.015625)"/>
        <path id="DejaVuSans-30" d="M 2034 4250 
Q 1547 4250 1301 3770 
Q 1056 3291 1056 2328 
Q 1056 1369 1301 889 
Q 1547 409 2034 409 
Q 2525 409 2770 889 
Q 3016 1369 3016 2328 
Q 3016 3291 2770 3770 
Q 2525 4250 2034 4250 
z
M 2034 4750 
Q 2819 4750 3233 4129 
Q 3647 3509 3647 2328 
Q 3647 1150 3233 529 
Q 2819 -91 2034 -91 
Q 1250 -91 836 529 
Q 422 1150 422 2328 
Q 422 3509 836 4129 
Q 1250 4750 2034 4750 
z
" transform="scale(0.015625)"/>
        <path id="DejaVuSans-2e" d="M 684 794 
L 1344 794 
L 1344 0 
L 684 0 
L 684 794 
z
" transform="scale(0.015625)"/>
        <path id="DejaVuSans-32" d="M 1228 531 
L 3431 531 
L 3431 0 
L 469 0 
L 469 531 
Q 828 903 1448 1529 
Q 2069 2156 2228 2338 
Q 2531 2678 2651 2914 
Q 2772 3150 2772 3378 
Q 2772 3750 2511 3984 
Q 2250 4219 1831 4219 
Q 1534 4219 1204 4116 
Q 875 4013 500 3803 
L 500 4441 
Q 881 4594 1212 4672 
Q 1544 4750 1819 4750 
Q 2544 4750 2975 4387 
Q 3406 4025 3406 3419 
Q 3406 3131 3298 2873 
Q 3191 2616 2906 2266 
Q 2828 2175 2409 1742 
Q 1991 1309 1228 531 
z
" transform="scale(0.015625)"/>
       </defs>
       <use xlink:href="#DejaVuSans-2212"/>
       <use xlink:href="#DejaVuSans-30" transform="translate(83.789062 0)"/>
       <use xlink:href="#DejaVuSans-2e" transform="translate(147.412109 0)"/>
       <use xlink:href="#DejaVuSans-32" transform="translate(179.199219 0)"/>
      </g>
     </g>
    </g>
    <g id="xtick_2">
     <g id="line2d_2">
      <g>
       <use xlink:href="#me8bfca371a" x="175.165704" y="354.958125" style="stroke: #000000; stroke-width: 0.8"/>
      </g>
     </g>
     <g id="text_2">
      <!-- 0.0 -->
      <g transform="translate(167.214142 369.556562) scale(0.1 -0.1)">
       <use xlink:href="#DejaVuSans-30"/>
       <use xlink:href="#DejaVuSans-2e" transform="translate(63.623047 0)"/>
       <use xlink:href="#DejaVuSans-30" transform="translate(95.410156 0)"/>
      </g>
     </g>
    </g>
    <g id="xtick_3">
     <g id="line2d_3">
      <g>
       <use xlink:href="#me8bfca371a" x="274.813416" y="354.958125" style="stroke: #000000; stroke-width: 0.8"/>
      </g>
     </g>
     <g id="text_3">
      <!-- 0.2 -->
      <g transform="translate(266.861853 369.556562) scale(0.1 -0.1)">
       <use xlink:href="#DejaVuSans-30"/>
       <use xlink:href="#DejaVuSans-2e" transform="translate(63.623047 0)"/>
       <use xlink:href="#DejaVuSans-32" transform="translate(95.410156 0)"/>
      </g>
     </g>
    </g>
    <g id="xtick_4">
     <g id="line2d_4">
      <g>
       <use xlink:href="#me8bfca371a" x="374.461127" y="354.958125" style="stroke: #000000; stroke-width: 0.8"/>
      </g>
     </g>
     <g id="text_4">
      <!-- 0.4 -->
      <g transform="translate(366.509565 369.556562) scale(0.1 -0.1)">
       <defs>
        <path id="DejaVuSans-34" d="M 2419 4116 
L 825 1625 
L 2419 1625 
L 2419 4116 
z
M 2253 4666 
L 3047 4666 
L 3047 1625 
L 3713 1625 
L 3713 1100 
L 3047 1100 
L 3047 0 
L 2419 0 
L 2419 1100 
L 313 1100 
L 313 1709 
L 2253 4666 
z
" transform="scale(0.015625)"/>
       </defs>
       <use xlink:href="#DejaVuSans-30"/>
       <use xlink:href="#DejaVuSans-2e" transform="translate(63.623047 0)"/>
       <use xlink:href="#DejaVuSans-34" transform="translate(95.410156 0)"/>
      </g>
     </g>
    </g>
    <g id="xtick_5">
     <g id="line2d_5">
      <g>
       <use xlink:href="#me8bfca371a" x="474.108839" y="354.958125" style="stroke: #000000; stroke-width: 0.8"/>
      </g>
     </g>
     <g id="text_5">
      <!-- 0.6 -->
      <g transform="translate(466.157276 369.556562) scale(0.1 -0.1)">
       <defs>
        <path id="DejaVuSans-36" d="M 2113 2584 
Q 1688 2584 1439 2293 
Q 1191 2003 1191 1497 
Q 1191 994 1439 701 
Q 1688 409 2113 409 
Q 2538 409 2786 701 
Q 3034 994 3034 1497 
Q 3034 2003 2786 2293 
Q 2538 2584 2113 2584 
z
M 3366 4563 
L 3366 3988 
Q 3128 4100 2886 4159 
Q 2644 4219 2406 4219 
Q 1781 4219 1451 3797 
Q 1122 3375 1075 2522 
Q 1259 2794 1537 2939 
Q 1816 3084 2150 3084 
Q 2853 3084 3261 2657 
Q 3669 2231 3669 1497 
Q 3669 778 3244 343 
Q 2819 -91 2113 -91 
Q 1303 -91 875 529 
Q 447 1150 447 2328 
Q 447 3434 972 4092 
Q 1497 4750 2381 4750 
Q 2619 4750 2861 4703 
Q 3103 4656 3366 4563 
z
" transform="scale(0.015625)"/>
       </defs>
       <use xlink:href="#DejaVuSans-30"/>
       <use xlink:href="#DejaVuSans-2e" transform="translate(63.623047 0)"/>
       <use xlink:href="#DejaVuSans-36" transform="translate(95.410156 0)"/>
      </g>
     </g>
    </g>
    <g id="xtick_6">
     <g id="line2d_6">
      <g>
       <use xlink:href="#me8bfca371a" x="573.75655" y="354.958125" style="stroke: #000000; stroke-width: 0.8"/>
      </g>
     </g>
     <g id="text_6">
      <!-- 0.8 -->
      <g transform="translate(565.804987 369.556562) scale(0.1 -0.1)">
       <defs>
        <path id="DejaVuSans-38" d="M 2034 2216 
Q 1584 2216 1326 1975 
Q 1069 1734 1069 1313 
Q 1069 891 1326 650 
Q 1584 409 2034 409 
Q 2484 409 2743 651 
Q 3003 894 3003 1313 
Q 3003 1734 2745 1975 
Q 2488 2216 2034 2216 
z
M 1403 2484 
Q 997 2584 770 2862 
Q 544 3141 544 3541 
Q 544 4100 942 4425 
Q 1341 4750 2034 4750 
Q 2731 4750 3128 4425 
Q 3525 4100 3525 3541 
Q 3525 3141 3298 2862 
Q 3072 2584 2669 2484 
Q 3125 2378 3379 2068 
Q 3634 1759 3634 1313 
Q 3634 634 3220 271 
Q 2806 -91 2034 -91 
Q 1263 -91 848 271 
Q 434 634 434 1313 
Q 434 1759 690 2068 
Q 947 2378 1403 2484 
z
M 1172 3481 
Q 1172 3119 1398 2916 
Q 1625 2713 2034 2713 
Q 2441 2713 2670 2916 
Q 2900 3119 2900 3481 
Q 2900 3844 2670 4047 
Q 2441 4250 2034 4250 
Q 1625 4250 1398 4047 
Q 1172 3844 1172 3481 
z
" transform="scale(0.015625)"/>
       </defs>
       <use xlink:href="#DejaVuSans-30"/>
       <use xlink:href="#DejaVuSans-2e" transform="translate(63.623047 0)"/>
       <use xlink:href="#DejaVuSans-38" transform="translate(95.410156 0)"/>
      </g>
     </g>
    </g>
    <g id="xtick_7">
     <g id="line2d_7">
      <g>
       <use xlink:href="#me8bfca371a" x="673.404261" y="354.958125" style="stroke: #000000; stroke-width: 0.8"/>
      </g>
     </g>
     <g id="text_7">
      <!-- 1.0 -->
      <g transform="translate(665.452699 369.556562) scale(0.1 -0.1)">
       <defs>
        <path id="DejaVuSans-31" d="M 794 531 
L 1825 531 
L 1825 4091 
L 703 3866 
L 703 4441 
L 1819 4666 
L 2450 4666 
L 2450 531 
L 3481 531 
L 3481 0 
L 794 0 
L 794 531 
z
" transform="scale(0.015625)"/>
       </defs>
       <use xlink:href="#DejaVuSans-31"/>
       <use xlink:href="#DejaVuSans-2e" transform="translate(63.623047 0)"/>
       <use xlink:href="#DejaVuSans-30" transform="translate(95.410156 0)"/>
      </g>
     </g>
    </g>
    <g id="text_8">
     <!-- Value -->
     <g transform="translate(355.309375 383.234687) scale(0.1 -0.1)">
      <defs>
       <path id="DejaVuSans-56" d="M 1831 0 
L 50 4666 
L 709 4666 
L 2188 738 
L 3669 4666 
L 4325 4666 
L 2547 0 
L 1831 0 
z
" transform="scale(0.015625)"/>
       <path id="DejaVuSans-61" d="M 2194 1759 
Q 1497 1759 1228 1600 
Q 959 1441 959 1056 
Q 959 750 1161 570 
Q 1363 391 1709 391 
Q 2188 391 2477 730 
Q 2766 1069 2766 1631 
L 2766 1759 
L 2194 1759 
z
M 3341 1997 
L 3341 0 
L 2766 0 
L 2766 531 
Q 2569 213 2275 61 
Q 1981 -91 1556 -91 
Q 1019 -91 701 211 
Q 384 513 384 1019 
Q 384 1609 779 1909 
Q 1175 2209 1959 2209 
L 2766 2209 
L 2766 2266 
Q 2766 2663 2505 2880 
Q 2244 3097 1772 3097 
Q 1472 3097 1187 3025 
Q 903 2953 641 2809 
L 641 3341 
Q 956 3463 1253 3523 
Q 1550 3584 1831 3584 
Q 2591 3584 2966 3190 
Q 3341 2797 3341 1997 
z
" transform="scale(0.015625)"/>
       <path id="DejaVuSans-6c" d="M 603 4863 
L 1178 4863 
L 1178 0 
L 603 0 
L 603 4863 
z
" transform="scale(0.015625)"/>
       <path id="DejaVuSans-75" d="M 544 1381 
L 544 3500 
L 1119 3500 
L 1119 1403 
Q 1119 906 1312 657 
Q 1506 409 1894 409 
Q 2359 409 2629 706 
Q 2900 1003 2900 1516 
L 2900 3500 
L 3475 3500 
L 3475 0 
L 2900 0 
L 2900 538 
Q 2691 219 2414 64 
Q 2138 -91 1772 -91 
Q 1169 -91 856 284 
Q 544 659 544 1381 
z
M 1991 3584 
L 1991 3584 
z
" transform="scale(0.015625)"/>
       <path id="DejaVuSans-65" d="M 3597 1894 
L 3597 1613 
L 953 1613 
Q 991 1019 1311 708 
Q 1631 397 2203 397 
Q 2534 397 2845 478 
Q 3156 559 3463 722 
L 3463 178 
Q 3153 47 2828 -22 
Q 2503 -91 2169 -91 
Q 1331 -91 842 396 
Q 353 884 353 1716 
Q 353 2575 817 3079 
Q 1281 3584 2069 3584 
Q 2775 3584 3186 3129 
Q 3597 2675 3597 1894 
z
M 3022 2063 
Q 3016 2534 2758 2815 
Q 2500 3097 2075 3097 
Q 1594 3097 1305 2825 
Q 1016 2553 972 2059 
L 3022 2063 
z
" transform="scale(0.015625)"/>
      </defs>
      <use xlink:href="#DejaVuSans-56"/>
      <use xlink:href="#DejaVuSans-61" transform="translate(60.658203 0)"/>
      <use xlink:href="#DejaVuSans-6c" transform="translate(121.9375 0)"/>
      <use xlink:href="#DejaVuSans-75" transform="translate(149.720703 0)"/>
      <use xlink:href="#DejaVuSans-65" transform="translate(213.099609 0)"/>
     </g>
    </g>
    <g id="text_9">
     <!-- 1e6 -->
     <g transform="translate(684.9625 382.234687) scale(0.1 -0.1)">
      <use xlink:href="#DejaVuSans-31"/>
      <use xlink:href="#DejaVuSans-65" transform="translate(63.623047 0)"/>
      <use xlink:href="#DejaVuSans-36" transform="translate(125.146484 0)"/>
     </g>
    </g>
   </g>
   <g id="matplotlib.axis_2">
    <g id="ytick_1">
     <g id="line2d_8">
      <defs>
       <path id="m2eb0e7f972" d="M 0 0 
L -3.5 0 
" style="stroke: #000000; stroke-width: 0.8"/>
      </defs>
      <g>
       <use xlink:href="#m2eb0e7f972" x="34.240625" y="354.958125" style="stroke: #000000; stroke-width: 0.8"/>
      </g>
     </g>
     <g id="text_10">
      <!-- 0 -->
      <g transform="translate(20.878125 358.757344) scale(0.1 -0.1)">
       <use xlink:href="#DejaVuSans-30"/>
      </g>
     </g>
    </g>
    <g id="ytick_2">
     <g id="line2d_9">
      <g>
       <use xlink:href="#m2eb0e7f972" x="34.240625" y="285.918006" style="stroke: #000000; stroke-width: 0.8"/>
      </g>
     </g>
     <g id="text_11">
      <!-- 2 -->
      <g transform="translate(20.878125 289.717225) scale(0.1 -0.1)">
       <use xlink:href="#DejaVuSans-32"/>
      </g>
     </g>
    </g>
    <g id="ytick_3">
     <g id="line2d_10">
      <g>
       <use xlink:href="#m2eb0e7f972" x="34.240625" y="216.877887" style="stroke: #000000; stroke-width: 0.8"/>
      </g>
     </g>
     <g id="text_12">
      <!-- 4 -->
      <g transform="translate(20.878125 220.677106) scale(0.1 -0.1)">
       <use xlink:href="#DejaVuSans-34"/>
      </g>
     </g>
    </g>
    <g id="ytick_4">
     <g id="line2d_11">
      <g>
       <use xlink:href="#m2eb0e7f972" x="34.240625" y="147.837768" style="stroke: #000000; stroke-width: 0.8"/>
      </g>
     </g>
     <g id="text_13">
      <!-- 6 -->
      <g transform="translate(20.878125 151.636987) scale(0.1 -0.1)">
       <use xlink:href="#DejaVuSans-36"/>
      </g>
     </g>
    </g>
    <g id="ytick_5">
     <g id="line2d_12">
      <g>
       <use xlink:href="#m2eb0e7f972" x="34.240625" y="78.79765" style="stroke: #000000; stroke-width: 0.8"/>
      </g>
     </g>
     <g id="text_14">
      <!-- 8 -->
      <g transform="translate(20.878125 82.596868) scale(0.1 -0.1)">
       <use xlink:href="#DejaVuSans-38"/>
      </g>
     </g>
    </g>
    <g id="text_15">
     <!-- Density -->
     <g transform="translate(14.798438 207.646719) rotate(-90) scale(0.1 -0.1)">
      <defs>
       <path id="DejaVuSans-44" d="M 1259 4147 
L 1259 519 
L 2022 519 
Q 2988 519 3436 956 
Q 3884 1394 3884 2338 
Q 3884 3275 3436 3711 
Q 2988 4147 2022 4147 
L 1259 4147 
z
M 628 4666 
L 1925 4666 
Q 3281 4666 3915 4102 
Q 4550 3538 4550 2338 
Q 4550 1131 3912 565 
Q 3275 0 1925 0 
L 628 0 
L 628 4666 
z
" transform="scale(0.015625)"/>
       <path id="DejaVuSans-6e" d="M 3513 2113 
L 3513 0 
L 2938 0 
L 2938 2094 
Q 2938 2591 2744 2837 
Q 2550 3084 2163 3084 
Q 1697 3084 1428 2787 
Q 1159 2491 1159 1978 
L 1159 0 
L 581 0 
L 581 3500 
L 1159 3500 
L 1159 2956 
Q 1366 3272 1645 3428 
Q 1925 3584 2291 3584 
Q 2894 3584 3203 3211 
Q 3513 2838 3513 2113 
z
" transform="scale(0.015625)"/>
       <path id="DejaVuSans-73" d="M 2834 3397 
L 2834 2853 
Q 2591 2978 2328 3040 
Q 2066 3103 1784 3103 
Q 1356 3103 1142 2972 
Q 928 2841 928 2578 
Q 928 2378 1081 2264 
Q 1234 2150 1697 2047 
L 1894 2003 
Q 2506 1872 2764 1633 
Q 3022 1394 3022 966 
Q 3022 478 2636 193 
Q 2250 -91 1575 -91 
Q 1294 -91 989 -36 
Q 684 19 347 128 
L 347 722 
Q 666 556 975 473 
Q 1284 391 1588 391 
Q 1994 391 2212 530 
Q 2431 669 2431 922 
Q 2431 1156 2273 1281 
Q 2116 1406 1581 1522 
L 1381 1569 
Q 847 1681 609 1914 
Q 372 2147 372 2553 
Q 372 3047 722 3315 
Q 1072 3584 1716 3584 
Q 2034 3584 2315 3537 
Q 2597 3491 2834 3397 
z
" transform="scale(0.015625)"/>
       <path id="DejaVuSans-69" d="M 603 3500 
L 1178 3500 
L 1178 0 
L 603 0 
L 603 3500 
z
M 603 4863 
L 1178 4863 
L 1178 4134 
L 603 4134 
L 603 4863 
z
" transform="scale(0.015625)"/>
       <path id="DejaVuSans-74" d="M 1172 4494 
L 1172 3500 
L 2356 3500 
L 2356 3053 
L 1172 3053 
L 1172 1153 
Q 1172 725 1289 603 
Q 1406 481 1766 481 
L 2356 481 
L 2356 0 
L 1766 0 
Q 1100 0 847 248 
Q 594 497 594 1153 
L 594 3053 
L 172 3053 
L 172 3500 
L 594 3500 
L 594 4494 
L 1172 4494 
z
" transform="scale(0.015625)"/>
       <path id="DejaVuSans-79" d="M 2059 -325 
Q 1816 -950 1584 -1140 
Q 1353 -1331 966 -1331 
L 506 -1331 
L 506 -850 
L 844 -850 
Q 1081 -850 1212 -737 
Q 1344 -625 1503 -206 
L 1606 56 
L 191 3500 
L 800 3500 
L 1894 763 
L 2988 3500 
L 3597 3500 
L 2059 -325 
z
" transform="scale(0.015625)"/>
      </defs>
      <use xlink:href="#DejaVuSans-44"/>
      <use xlink:href="#DejaVuSans-65" transform="translate(77.001953 0)"/>
      <use xlink:href="#DejaVuSans-6e" transform="translate(138.525391 0)"/>
      <use xlink:href="#DejaVuSans-73" transform="translate(201.904297 0)"/>
      <use xlink:href="#DejaVuSans-69" transform="translate(254.003906 0)"/>
      <use xlink:href="#DejaVuSans-74" transform="translate(281.787109 0)"/>
      <use xlink:href="#DejaVuSans-79" transform="translate(320.996094 0)"/>
     </g>
    </g>
    <g id="text_16">
     <!-- 1e−6 -->
     <g transform="translate(34.240625 19.318125) scale(0.1 -0.1)">
      <use xlink:href="#DejaVuSans-31"/>
      <use xlink:href="#DejaVuSans-65" transform="translate(63.623047 0)"/>
      <use xlink:href="#DejaVuSans-2212" transform="translate(125.146484 0)"/>
      <use xlink:href="#DejaVuSans-36" transform="translate(208.935547 0)"/>
     </g>
    </g>
   </g>
   <g id="line2d_13">
    <path d="M 180.14809 267.506359 
L 183.447462 240.874953 
L 185.097149 228.99969 
L 186.746835 218.500779 
L 188.396521 209.481424 
L 190.046207 201.912735 
L 191.695893 195.702547 
L 193.34558 190.771869 
L 194.995266 187.110844 
L 196.644952 184.793167 
L 198.294638 183.943579 
L 199.944324 184.671394 
L 201.59401 186.996484 
L 203.243697 190.797206 
L 204.893383 195.801048 
L 208.192755 207.832862 
L 211.492128 219.966664 
L 213.141814 225.447336 
L 214.7915 230.455138 
L 218.090872 239.324689 
L 221.390245 247.258975 
L 224.689617 254.495704 
L 226.339303 257.737595 
L 227.98899 260.61605 
L 229.638676 263.043811 
L 231.288362 264.948709 
L 232.938048 266.284527 
L 234.587734 267.038801 
L 236.23742 267.237773 
L 237.887107 266.948355 
L 239.536793 266.276547 
L 244.485851 263.452866 
L 246.135538 262.780321 
L 247.785224 262.46564 
L 249.43491 262.57454 
L 251.084596 263.108207 
L 252.734282 264.001785 
L 257.683341 267.456788 
L 259.333027 268.308002 
L 260.982713 268.764148 
L 262.6324 268.741948 
L 264.282086 268.220756 
L 265.931772 267.249935 
L 267.581458 265.949581 
L 270.880831 263.134676 
L 272.530517 262.086399 
L 274.180203 261.574154 
L 275.829889 261.754261 
L 277.479575 262.695491 
L 279.129261 264.369357 
L 280.778948 266.661422 
L 282.428634 269.400728 
L 290.677065 284.35597 
L 293.976437 289.778261 
L 297.27581 294.923785 
L 300.575182 299.643455 
L 302.224868 301.725323 
L 303.874554 303.55235 
L 305.524241 305.084409 
L 307.173927 306.298996 
L 308.823613 307.195172 
L 310.473299 307.795426 
L 312.122985 308.145548 
L 315.422358 308.379465 
L 318.72173 308.587961 
L 320.371416 308.909228 
L 322.021102 309.470972 
L 323.670789 310.313988 
L 325.320475 311.447011 
L 326.970161 312.844485 
L 330.269533 316.170485 
L 333.568906 319.527836 
L 335.218592 320.918674 
L 336.868278 321.961788 
L 338.517964 322.563257 
L 340.167651 322.663319 
L 341.817337 322.249607 
L 343.467023 321.367961 
L 345.116709 320.127431 
L 348.416082 317.284443 
L 350.065768 316.119631 
L 351.715454 315.409441 
L 353.36514 315.3077 
L 355.014826 315.88646 
L 356.664513 317.12321 
L 358.314199 318.906838 
L 361.613571 323.381119 
L 364.912943 327.77374 
L 366.56263 329.598759 
L 368.212316 331.117059 
L 369.862002 332.355527 
L 371.511688 333.376703 
L 374.811061 335.064937 
L 384.709178 339.737717 
L 388.00855 340.932745 
L 391.307923 341.752251 
L 394.607295 342.257907 
L 399.556354 342.730359 
L 402.855726 342.892767 
L 404.505412 342.845762 
L 406.155098 342.638181 
L 407.804784 342.204718 
L 409.454471 341.487505 
L 411.104157 340.451704 
L 412.753843 339.101279 
L 416.053215 335.733813 
L 417.702902 333.991027 
L 419.352588 332.459296 
L 421.002274 331.340601 
L 422.65196 330.809312 
L 424.301646 330.980482 
L 425.951333 331.887513 
L 427.601019 333.474984 
L 429.250705 335.608584 
L 432.550077 340.737612 
L 434.199764 343.32378 
L 435.84945 345.697116 
L 437.499136 347.749808 
L 439.148822 349.430339 
L 440.798508 350.736585 
L 442.448194 351.702761 
L 444.097881 352.384415 
L 445.747567 352.844803 
L 449.046939 353.335747 
L 453.995998 353.601268 
L 463.894115 353.781465 
L 483.690349 353.899607 
L 505.13627 354.530123 
L 515.034387 354.532762 
L 529.881563 354.462613 
L 567.824345 354.850702 
L 635.461479 354.958124 
L 673.404261 354.930316 
L 673.404261 354.930316 
" clip-path="url(#p62016f9777)" style="fill: none; stroke: #4682b4; stroke-width: 2; stroke-linecap: square"/>
   </g>
   <g id="line2d_14">
    <path d="M 180.14809 304.145629 
L 188.396521 296.11507 
L 208.192755 276.653648 
L 214.7915 270.605212 
L 219.740559 266.372028 
L 224.689617 262.470068 
L 227.98899 260.083166 
L 231.288362 257.887849 
L 234.587734 255.900107 
L 237.887107 254.134637 
L 241.186479 252.604669 
L 244.485851 251.321796 
L 247.785224 250.295833 
L 251.084596 249.534688 
L 254.383969 249.044261 
L 257.683341 248.828369 
L 260.982713 248.888695 
L 264.282086 249.22477 
L 267.581458 249.833974 
L 270.880831 250.711572 
L 274.180203 251.850777 
L 277.479575 253.242835 
L 280.778948 254.877138 
L 284.07832 256.741359 
L 287.377692 258.821606 
L 290.677065 261.102596 
L 295.626123 264.864117 
L 300.575182 268.98028 
L 305.524241 273.387873 
L 312.122985 279.605343 
L 322.021102 289.348756 
L 335.218592 302.362463 
L 341.817337 308.596972 
L 348.416082 314.516055 
L 353.36514 318.702691 
L 358.314199 322.645857 
L 363.263257 326.328453 
L 368.212316 329.739587 
L 373.161374 332.87411 
L 378.110433 335.732043 
L 383.059492 338.317941 
L 388.00855 340.640201 
L 392.957609 342.710367 
L 397.906667 344.542442 
L 402.855726 346.15223 
L 407.804784 347.556725 
L 412.753843 348.773565 
L 419.352588 350.134844 
L 425.951333 351.235484 
L 432.550077 352.114747 
L 440.798508 352.95734 
L 449.046939 353.572978 
L 458.945056 354.086124 
L 470.49286 354.464754 
L 486.989722 354.751213 
L 510.085328 354.90318 
L 561.2256 354.956273 
L 673.404261 354.958125 
L 673.404261 354.958125 
" clip-path="url(#p62016f9777)" style="fill: none; stroke-dasharray: 7.4,3.2; stroke-dashoffset: 0; stroke: #ff0000; stroke-width: 2"/>
   </g>
   <g id="line2d_15">
    <path d="M 258.612852 354.958125 
L 258.612852 22.318125 
" clip-path="url(#p62016f9777)" style="fill: none; stroke-dasharray: 2.96,1.28; stroke-dashoffset: 0; stroke: #008000; stroke-width: 0.8"/>
   </g>
   <g id="line2d_16">
    <path d="M 452.548715 354.958125 
L 452.548715 22.318125 
" clip-path="url(#p62016f9777)" style="fill: none; stroke-dasharray: 2.59,1.12; stroke-dashoffset: 0; stroke: #ffa500; stroke-width: 0.7"/>
   </g>
   <g id="line2d_17">
    <path d="M 64.676989 354.958125 
L 64.676989 22.318125 
" clip-path="url(#p62016f9777)" style="fill: none; stroke-dasharray: 2.59,1.12; stroke-dashoffset: 0; stroke: #ffa500; stroke-width: 0.7"/>
   </g>
   <g id="line2d_18"/>
   <g id="line2d_19"/>
   <g id="patch_84">
    <path d="M 34.240625 354.958125 
L 34.240625 22.318125 
" style="fill: none; stroke: #000000; stroke-width: 0.8; stroke-linejoin: miter; stroke-linecap: square"/>
   </g>
   <g id="patch_85">
    <path d="M 703.840625 354.958125 
L 703.840625 22.318125 
" style="fill: none; stroke: #000000; stroke-width: 0.8; stroke-linejoin: miter; stroke-linecap: square"/>
   </g>
   <g id="patch_86">
    <path d="M 34.240625 354.958125 
L 703.840625 354.958125 
" style="fill: none; stroke: #000000; stroke-width: 0.8; stroke-linejoin: miter; stroke-linecap: square"/>
   </g>
   <g id="patch_87">
    <path d="M 34.240625 22.318125 
L 703.840625 22.318125 
" style="fill: none; stroke: #000000; stroke-width: 0.8; stroke-linejoin: miter; stroke-linecap: square"/>
   </g>
   <g id="text_17">
    <g id="patch_88">
     <path d="M 47.632625 70.615331 
L 114.762781 70.615331 
Q 117.462781 70.615331 117.462781 67.915331 
L 117.462781 28.970925 
Q 117.462781 26.270925 114.762781 26.270925 
L 47.632625 26.270925 
Q 44.932625 26.270925 44.932625 28.970925 
L 44.932625 67.915331 
Q 44.932625 70.615331 47.632625 70.615331 
z
" style="fill: #f5deb3; opacity: 0.7; stroke: #000000; stroke-linejoin: miter"/>
    </g>
    <!-- Outliers (±3σ): -->
    <g transform="translate(47.632625 35.809519) scale(0.09 -0.09)">
     <defs>
      <path id="DejaVuSans-4f" d="M 2522 4238 
Q 1834 4238 1429 3725 
Q 1025 3213 1025 2328 
Q 1025 1447 1429 934 
Q 1834 422 2522 422 
Q 3209 422 3611 934 
Q 4013 1447 4013 2328 
Q 4013 3213 3611 3725 
Q 3209 4238 2522 4238 
z
M 2522 4750 
Q 3503 4750 4090 4092 
Q 4678 3434 4678 2328 
Q 4678 1225 4090 567 
Q 3503 -91 2522 -91 
Q 1538 -91 948 565 
Q 359 1222 359 2328 
Q 359 3434 948 4092 
Q 1538 4750 2522 4750 
z
" transform="scale(0.015625)"/>
      <path id="DejaVuSans-72" d="M 2631 2963 
Q 2534 3019 2420 3045 
Q 2306 3072 2169 3072 
Q 1681 3072 1420 2755 
Q 1159 2438 1159 1844 
L 1159 0 
L 581 0 
L 581 3500 
L 1159 3500 
L 1159 2956 
Q 1341 3275 1631 3429 
Q 1922 3584 2338 3584 
Q 2397 3584 2469 3576 
Q 2541 3569 2628 3553 
L 2631 2963 
z
" transform="scale(0.015625)"/>
      <path id="DejaVuSans-20" transform="scale(0.015625)"/>
      <path id="DejaVuSans-28" d="M 1984 4856 
Q 1566 4138 1362 3434 
Q 1159 2731 1159 2009 
Q 1159 1288 1364 580 
Q 1569 -128 1984 -844 
L 1484 -844 
Q 1016 -109 783 600 
Q 550 1309 550 2009 
Q 550 2706 781 3412 
Q 1013 4119 1484 4856 
L 1984 4856 
z
" transform="scale(0.015625)"/>
      <path id="DejaVuSans-b1" d="M 2944 4013 
L 2944 2803 
L 4684 2803 
L 4684 2272 
L 2944 2272 
L 2944 1063 
L 2419 1063 
L 2419 2272 
L 678 2272 
L 678 2803 
L 2419 2803 
L 2419 4013 
L 2944 4013 
z
M 678 531 
L 4684 531 
L 4684 0 
L 678 0 
L 678 531 
z
" transform="scale(0.015625)"/>
      <path id="DejaVuSans-33" d="M 2597 2516 
Q 3050 2419 3304 2112 
Q 3559 1806 3559 1356 
Q 3559 666 3084 287 
Q 2609 -91 1734 -91 
Q 1441 -91 1130 -33 
Q 819 25 488 141 
L 488 750 
Q 750 597 1062 519 
Q 1375 441 1716 441 
Q 2309 441 2620 675 
Q 2931 909 2931 1356 
Q 2931 1769 2642 2001 
Q 2353 2234 1838 2234 
L 1294 2234 
L 1294 2753 
L 1863 2753 
Q 2328 2753 2575 2939 
Q 2822 3125 2822 3475 
Q 2822 3834 2567 4026 
Q 2313 4219 1838 4219 
Q 1578 4219 1281 4162 
Q 984 4106 628 3988 
L 628 4550 
Q 988 4650 1302 4700 
Q 1616 4750 1894 4750 
Q 2613 4750 3031 4423 
Q 3450 4097 3450 3541 
Q 3450 3153 3228 2886 
Q 3006 2619 2597 2516 
z
" transform="scale(0.015625)"/>
      <path id="DejaVuSans-3c3" d="M 1959 3044 
Q 1484 3044 1228 2700 
Q 959 2341 959 1747 
Q 959 1119 1226 758 
Q 1494 397 1959 397 
Q 2419 397 2687 759 
Q 2956 1122 2956 1747 
Q 2956 2319 2688 2700 
Q 2441 3044 1959 3044 
z
M 1959 3500 
L 3869 3500 
L 3869 2925 
L 3225 2925 
Q 3566 2438 3566 1747 
Q 3566 888 3138 400 
Q 2709 -91 1959 -91 
Q 1206 -91 781 400 
Q 353 888 353 1747 
Q 353 2613 781 3097 
Q 1134 3500 1959 3500 
z
" transform="scale(0.015625)"/>
      <path id="DejaVuSans-29" d="M 513 4856 
L 1013 4856 
Q 1481 4119 1714 3412 
Q 1947 2706 1947 2009 
Q 1947 1309 1714 600 
Q 1481 -109 1013 -844 
L 513 -844 
Q 928 -128 1133 580 
Q 1338 1288 1338 2009 
Q 1338 2731 1133 3434 
Q 928 4138 513 4856 
z
" transform="scale(0.015625)"/>
      <path id="DejaVuSans-3a" d="M 750 794 
L 1409 794 
L 1409 0 
L 750 0 
L 750 794 
z
M 750 3309 
L 1409 3309 
L 1409 2516 
L 750 2516 
L 750 3309 
z
" transform="scale(0.015625)"/>
     </defs>
     <use xlink:href="#DejaVuSans-4f"/>
     <use xlink:href="#DejaVuSans-75" transform="translate(78.710938 0)"/>
     <use xlink:href="#DejaVuSans-74" transform="translate(142.089844 0)"/>
     <use xlink:href="#DejaVuSans-6c" transform="translate(181.298828 0)"/>
     <use xlink:href="#DejaVuSans-69" transform="translate(209.082031 0)"/>
     <use xlink:href="#DejaVuSans-65" transform="translate(236.865234 0)"/>
     <use xlink:href="#DejaVuSans-72" transform="translate(298.388672 0)"/>
     <use xlink:href="#DejaVuSans-73" transform="translate(339.501953 0)"/>
     <use xlink:href="#DejaVuSans-20" transform="translate(391.601562 0)"/>
     <use xlink:href="#DejaVuSans-28" transform="translate(423.388672 0)"/>
     <use xlink:href="#DejaVuSans-b1" transform="translate(462.402344 0)"/>
     <use xlink:href="#DejaVuSans-33" transform="translate(546.191406 0)"/>
     <use xlink:href="#DejaVuSans-3c3" transform="translate(609.814453 0)"/>
     <use xlink:href="#DejaVuSans-29" transform="translate(673.193359 0)"/>
     <use xlink:href="#DejaVuSans-3a" transform="translate(712.207031 0)"/>
    </g>
    <!-- Left: 0 -->
    <g transform="translate(47.632625 45.88755) scale(0.09 -0.09)">
     <defs>
      <path id="DejaVuSans-4c" d="M 628 4666 
L 1259 4666 
L 1259 531 
L 3531 531 
L 3531 0 
L 628 0 
L 628 4666 
z
" transform="scale(0.015625)"/>
      <path id="DejaVuSans-66" d="M 2375 4863 
L 2375 4384 
L 1825 4384 
Q 1516 4384 1395 4259 
Q 1275 4134 1275 3809 
L 1275 3500 
L 2222 3500 
L 2222 3053 
L 1275 3053 
L 1275 0 
L 697 0 
L 697 3053 
L 147 3053 
L 147 3500 
L 697 3500 
L 697 3744 
Q 697 4328 969 4595 
Q 1241 4863 1831 4863 
L 2375 4863 
z
" transform="scale(0.015625)"/>
     </defs>
     <use xlink:href="#DejaVuSans-4c"/>
     <use xlink:href="#DejaVuSans-65" transform="translate(53.962891 0)"/>
     <use xlink:href="#DejaVuSans-66" transform="translate(115.486328 0)"/>
     <use xlink:href="#DejaVuSans-74" transform="translate(148.941406 0)"/>
     <use xlink:href="#DejaVuSans-3a" transform="translate(188.150391 0)"/>
     <use xlink:href="#DejaVuSans-20" transform="translate(221.841797 0)"/>
     <use xlink:href="#DejaVuSans-30" transform="translate(253.628906 0)"/>
    </g>
    <!-- Right: 130 -->
    <g transform="translate(47.632625 55.965581) scale(0.09 -0.09)">
     <defs>
      <path id="DejaVuSans-52" d="M 2841 2188 
Q 3044 2119 3236 1894 
Q 3428 1669 3622 1275 
L 4263 0 
L 3584 0 
L 2988 1197 
Q 2756 1666 2539 1819 
Q 2322 1972 1947 1972 
L 1259 1972 
L 1259 0 
L 628 0 
L 628 4666 
L 2053 4666 
Q 2853 4666 3247 4331 
Q 3641 3997 3641 3322 
Q 3641 2881 3436 2590 
Q 3231 2300 2841 2188 
z
M 1259 4147 
L 1259 2491 
L 2053 2491 
Q 2509 2491 2742 2702 
Q 2975 2913 2975 3322 
Q 2975 3731 2742 3939 
Q 2509 4147 2053 4147 
L 1259 4147 
z
" transform="scale(0.015625)"/>
      <path id="DejaVuSans-67" d="M 2906 1791 
Q 2906 2416 2648 2759 
Q 2391 3103 1925 3103 
Q 1463 3103 1205 2759 
Q 947 2416 947 1791 
Q 947 1169 1205 825 
Q 1463 481 1925 481 
Q 2391 481 2648 825 
Q 2906 1169 2906 1791 
z
M 3481 434 
Q 3481 -459 3084 -895 
Q 2688 -1331 1869 -1331 
Q 1566 -1331 1297 -1286 
Q 1028 -1241 775 -1147 
L 775 -588 
Q 1028 -725 1275 -790 
Q 1522 -856 1778 -856 
Q 2344 -856 2625 -561 
Q 2906 -266 2906 331 
L 2906 616 
Q 2728 306 2450 153 
Q 2172 0 1784 0 
Q 1141 0 747 490 
Q 353 981 353 1791 
Q 353 2603 747 3093 
Q 1141 3584 1784 3584 
Q 2172 3584 2450 3431 
Q 2728 3278 2906 2969 
L 2906 3500 
L 3481 3500 
L 3481 434 
z
" transform="scale(0.015625)"/>
      <path id="DejaVuSans-68" d="M 3513 2113 
L 3513 0 
L 2938 0 
L 2938 2094 
Q 2938 2591 2744 2837 
Q 2550 3084 2163 3084 
Q 1697 3084 1428 2787 
Q 1159 2491 1159 1978 
L 1159 0 
L 581 0 
L 581 4863 
L 1159 4863 
L 1159 2956 
Q 1366 3272 1645 3428 
Q 1925 3584 2291 3584 
Q 2894 3584 3203 3211 
Q 3513 2838 3513 2113 
z
" transform="scale(0.015625)"/>
     </defs>
     <use xlink:href="#DejaVuSans-52"/>
     <use xlink:href="#DejaVuSans-69" transform="translate(69.482422 0)"/>
     <use xlink:href="#DejaVuSans-67" transform="translate(97.265625 0)"/>
     <use xlink:href="#DejaVuSans-68" transform="translate(160.742188 0)"/>
     <use xlink:href="#DejaVuSans-74" transform="translate(224.121094 0)"/>
     <use xlink:href="#DejaVuSans-3a" transform="translate(263.330078 0)"/>
     <use xlink:href="#DejaVuSans-20" transform="translate(297.021484 0)"/>
     <use xlink:href="#DejaVuSans-31" transform="translate(328.808594 0)"/>
     <use xlink:href="#DejaVuSans-33" transform="translate(392.431641 0)"/>
     <use xlink:href="#DejaVuSans-30" transform="translate(456.054688 0)"/>
    </g>
    <!-- Total: 130 -->
    <g transform="translate(47.632625 66.043612) scale(0.09 -0.09)">
     <defs>
      <path id="DejaVuSans-54" d="M -19 4666 
L 3928 4666 
L 3928 4134 
L 2272 4134 
L 2272 0 
L 1638 0 
L 1638 4134 
L -19 4134 
L -19 4666 
z
" transform="scale(0.015625)"/>
      <path id="DejaVuSans-6f" d="M 1959 3097 
Q 1497 3097 1228 2736 
Q 959 2375 959 1747 
Q 959 1119 1226 758 
Q 1494 397 1959 397 
Q 2419 397 2687 759 
Q 2956 1122 2956 1747 
Q 2956 2369 2687 2733 
Q 2419 3097 1959 3097 
z
M 1959 3584 
Q 2709 3584 3137 3096 
Q 3566 2609 3566 1747 
Q 3566 888 3137 398 
Q 2709 -91 1959 -91 
Q 1206 -91 779 398 
Q 353 888 353 1747 
Q 353 2609 779 3096 
Q 1206 3584 1959 3584 
z
" transform="scale(0.015625)"/>
     </defs>
     <use xlink:href="#DejaVuSans-54"/>
     <use xlink:href="#DejaVuSans-6f" transform="translate(44.083984 0)"/>
     <use xlink:href="#DejaVuSans-74" transform="translate(105.265625 0)"/>
     <use xlink:href="#DejaVuSans-61" transform="translate(144.474609 0)"/>
     <use xlink:href="#DejaVuSans-6c" transform="translate(205.753906 0)"/>
     <use xlink:href="#DejaVuSans-3a" transform="translate(233.537109 0)"/>
     <use xlink:href="#DejaVuSans-20" transform="translate(267.228516 0)"/>
     <use xlink:href="#DejaVuSans-31" transform="translate(299.015625 0)"/>
     <use xlink:href="#DejaVuSans-33" transform="translate(362.638672 0)"/>
     <use xlink:href="#DejaVuSans-30" transform="translate(426.261719 0)"/>
    </g>
   </g>
   <g id="text_18">
    <!-- credit_limit -->
    <g transform="translate(335.692813 16.318125) scale(0.12 -0.12)">
     <defs>
      <path id="DejaVuSans-63" d="M 3122 3366 
L 3122 2828 
Q 2878 2963 2633 3030 
Q 2388 3097 2138 3097 
Q 1578 3097 1268 2742 
Q 959 2388 959 1747 
Q 959 1106 1268 751 
Q 1578 397 2138 397 
Q 2388 397 2633 464 
Q 2878 531 3122 666 
L 3122 134 
Q 2881 22 2623 -34 
Q 2366 -91 2075 -91 
Q 1284 -91 818 406 
Q 353 903 353 1747 
Q 353 2603 823 3093 
Q 1294 3584 2113 3584 
Q 2378 3584 2631 3529 
Q 2884 3475 3122 3366 
z
" transform="scale(0.015625)"/>
      <path id="DejaVuSans-64" d="M 2906 2969 
L 2906 4863 
L 3481 4863 
L 3481 0 
L 2906 0 
L 2906 525 
Q 2725 213 2448 61 
Q 2172 -91 1784 -91 
Q 1150 -91 751 415 
Q 353 922 353 1747 
Q 353 2572 751 3078 
Q 1150 3584 1784 3584 
Q 2172 3584 2448 3432 
Q 2725 3281 2906 2969 
z
M 947 1747 
Q 947 1113 1208 752 
Q 1469 391 1925 391 
Q 2381 391 2643 752 
Q 2906 1113 2906 1747 
Q 2906 2381 2643 2742 
Q 2381 3103 1925 3103 
Q 1469 3103 1208 2742 
Q 947 2381 947 1747 
z
" transform="scale(0.015625)"/>
      <path id="DejaVuSans-5f" d="M 3263 -1063 
L 3263 -1509 
L -63 -1509 
L -63 -1063 
L 3263 -1063 
z
" transform="scale(0.015625)"/>
      <path id="DejaVuSans-6d" d="M 3328 2828 
Q 3544 3216 3844 3400 
Q 4144 3584 4550 3584 
Q 5097 3584 5394 3201 
Q 5691 2819 5691 2113 
L 5691 0 
L 5113 0 
L 5113 2094 
Q 5113 2597 4934 2840 
Q 4756 3084 4391 3084 
Q 3944 3084 3684 2787 
Q 3425 2491 3425 1978 
L 3425 0 
L 2847 0 
L 2847 2094 
Q 2847 2600 2669 2842 
Q 2491 3084 2119 3084 
Q 1678 3084 1418 2786 
Q 1159 2488 1159 1978 
L 1159 0 
L 581 0 
L 581 3500 
L 1159 3500 
L 1159 2956 
Q 1356 3278 1631 3431 
Q 1906 3584 2284 3584 
Q 2666 3584 2933 3390 
Q 3200 3197 3328 2828 
z
" transform="scale(0.015625)"/>
     </defs>
     <use xlink:href="#DejaVuSans-63"/>
     <use xlink:href="#DejaVuSans-72" transform="translate(54.980469 0)"/>
     <use xlink:href="#DejaVuSans-65" transform="translate(93.84375 0)"/>
     <use xlink:href="#DejaVuSans-64" transform="translate(155.367188 0)"/>
     <use xlink:href="#DejaVuSans-69" transform="translate(218.84375 0)"/>
     <use xlink:href="#DejaVuSans-74" transform="translate(246.626953 0)"/>
     <use xlink:href="#DejaVuSans-5f" transform="translate(285.835938 0)"/>
     <use xlink:href="#DejaVuSans-6c" transform="translate(335.835938 0)"/>
     <use xlink:href="#DejaVuSans-69" transform="translate(363.619141 0)"/>
     <use xlink:href="#DejaVuSans-6d" transform="translate(391.402344 0)"/>
     <use xlink:href="#DejaVuSans-69" transform="translate(488.814453 0)"/>
     <use xlink:href="#DejaVuSans-74" transform="translate(516.597656 0)"/>
    </g>
   </g>
   <g id="legend_1">
    <g id="patch_89">
     <path d="M 519.731875 110.915625 
L 698.240625 110.915625 
Q 699.840625 110.915625 699.840625 109.315625 
L 699.840625 27.918125 
Q 699.840625 26.318125 698.240625 26.318125 
L 519.731875 26.318125 
Q 518.131875 26.318125 518.131875 27.918125 
L 518.131875 109.315625 
Q 518.131875 110.915625 519.731875 110.915625 
z
" style="fill: #ffffff; opacity: 0.8; stroke: #cccccc; stroke-linejoin: miter"/>
    </g>
    <g id="patch_90">
     <path d="M 521.331875 35.596875 
L 537.331875 35.596875 
L 537.331875 29.996875 
L 521.331875 29.996875 
z
" style="fill: #4682b4; opacity: 0.4"/>
    </g>
    <g id="text_19">
     <!-- Histogram -->
     <g transform="translate(543.731875 35.596875) scale(0.08 -0.08)">
      <defs>
       <path id="DejaVuSans-48" d="M 628 4666 
L 1259 4666 
L 1259 2753 
L 3553 2753 
L 3553 4666 
L 4184 4666 
L 4184 0 
L 3553 0 
L 3553 2222 
L 1259 2222 
L 1259 0 
L 628 0 
L 628 4666 
z
" transform="scale(0.015625)"/>
      </defs>
      <use xlink:href="#DejaVuSans-48"/>
      <use xlink:href="#DejaVuSans-69" transform="translate(75.195312 0)"/>
      <use xlink:href="#DejaVuSans-73" transform="translate(102.978516 0)"/>
      <use xlink:href="#DejaVuSans-74" transform="translate(155.078125 0)"/>
      <use xlink:href="#DejaVuSans-6f" transform="translate(194.287109 0)"/>
      <use xlink:href="#DejaVuSans-67" transform="translate(255.46875 0)"/>
      <use xlink:href="#DejaVuSans-72" transform="translate(318.945312 0)"/>
      <use xlink:href="#DejaVuSans-61" transform="translate(360.058594 0)"/>
      <use xlink:href="#DejaVuSans-6d" transform="translate(421.337891 0)"/>
     </g>
    </g>
    <g id="line2d_20">
     <path d="M 521.331875 44.539375 
L 529.331875 44.539375 
L 537.331875 44.539375 
" style="fill: none; stroke: #4682b4; stroke-width: 2; stroke-linecap: square"/>
    </g>
    <g id="text_20">
     <!-- KDE -->
     <g transform="translate(543.731875 47.339375) scale(0.08 -0.08)">
      <defs>
       <path id="DejaVuSans-4b" d="M 628 4666 
L 1259 4666 
L 1259 2694 
L 3353 4666 
L 4166 4666 
L 1850 2491 
L 4331 0 
L 3500 0 
L 1259 2247 
L 1259 0 
L 628 0 
L 628 4666 
z
" transform="scale(0.015625)"/>
       <path id="DejaVuSans-45" d="M 628 4666 
L 3578 4666 
L 3578 4134 
L 1259 4134 
L 1259 2753 
L 3481 2753 
L 3481 2222 
L 1259 2222 
L 1259 531 
L 3634 531 
L 3634 0 
L 628 0 
L 628 4666 
z
" transform="scale(0.015625)"/>
      </defs>
      <use xlink:href="#DejaVuSans-4b"/>
      <use xlink:href="#DejaVuSans-44" transform="translate(65.576172 0)"/>
      <use xlink:href="#DejaVuSans-45" transform="translate(142.578125 0)"/>
     </g>
    </g>
    <g id="line2d_21">
     <path d="M 521.331875 56.281875 
L 529.331875 56.281875 
L 537.331875 56.281875 
" style="fill: none; stroke-dasharray: 7.4,3.2; stroke-dashoffset: 0; stroke: #ff0000; stroke-width: 2"/>
    </g>
    <g id="text_21">
     <!-- Normal (μ=167484.32, σ=129747.66) -->
     <g transform="translate(543.731875 59.081875) scale(0.08 -0.08)">
      <defs>
       <path id="DejaVuSans-4e" d="M 628 4666 
L 1478 4666 
L 3547 763 
L 3547 4666 
L 4159 4666 
L 4159 0 
L 3309 0 
L 1241 3903 
L 1241 0 
L 628 0 
L 628 4666 
z
" transform="scale(0.015625)"/>
       <path id="DejaVuSans-3bc" d="M 544 -1331 
L 544 3500 
L 1119 3500 
L 1119 1325 
Q 1119 872 1334 640 
Q 1550 409 1972 409 
Q 2434 409 2667 671 
Q 2900 934 2900 1459 
L 2900 3500 
L 3475 3500 
L 3475 806 
Q 3475 619 3529 530 
Q 3584 441 3700 441 
Q 3728 441 3778 458 
Q 3828 475 3916 513 
L 3916 50 
Q 3788 -22 3673 -56 
Q 3559 -91 3450 -91 
Q 3234 -91 3106 31 
Q 2978 153 2931 403 
Q 2775 156 2548 32 
Q 2322 -91 2016 -91 
Q 1697 -91 1473 31 
Q 1250 153 1119 397 
L 1119 -1331 
L 544 -1331 
z
" transform="scale(0.015625)"/>
       <path id="DejaVuSans-3d" d="M 678 2906 
L 4684 2906 
L 4684 2381 
L 678 2381 
L 678 2906 
z
M 678 1631 
L 4684 1631 
L 4684 1100 
L 678 1100 
L 678 1631 
z
" transform="scale(0.015625)"/>
       <path id="DejaVuSans-37" d="M 525 4666 
L 3525 4666 
L 3525 4397 
L 1831 0 
L 1172 0 
L 2766 4134 
L 525 4134 
L 525 4666 
z
" transform="scale(0.015625)"/>
       <path id="DejaVuSans-2c" d="M 750 794 
L 1409 794 
L 1409 256 
L 897 -744 
L 494 -744 
L 750 256 
L 750 794 
z
" transform="scale(0.015625)"/>
       <path id="DejaVuSans-39" d="M 703 97 
L 703 672 
Q 941 559 1184 500 
Q 1428 441 1663 441 
Q 2288 441 2617 861 
Q 2947 1281 2994 2138 
Q 2813 1869 2534 1725 
Q 2256 1581 1919 1581 
Q 1219 1581 811 2004 
Q 403 2428 403 3163 
Q 403 3881 828 4315 
Q 1253 4750 1959 4750 
Q 2769 4750 3195 4129 
Q 3622 3509 3622 2328 
Q 3622 1225 3098 567 
Q 2575 -91 1691 -91 
Q 1453 -91 1209 -44 
Q 966 3 703 97 
z
M 1959 2075 
Q 2384 2075 2632 2365 
Q 2881 2656 2881 3163 
Q 2881 3666 2632 3958 
Q 2384 4250 1959 4250 
Q 1534 4250 1286 3958 
Q 1038 3666 1038 3163 
Q 1038 2656 1286 2365 
Q 1534 2075 1959 2075 
z
" transform="scale(0.015625)"/>
      </defs>
      <use xlink:href="#DejaVuSans-4e"/>
      <use xlink:href="#DejaVuSans-6f" transform="translate(74.804688 0)"/>
      <use xlink:href="#DejaVuSans-72" transform="translate(135.986328 0)"/>
      <use xlink:href="#DejaVuSans-6d" transform="translate(175.349609 0)"/>
      <use xlink:href="#DejaVuSans-61" transform="translate(272.761719 0)"/>
      <use xlink:href="#DejaVuSans-6c" transform="translate(334.041016 0)"/>
      <use xlink:href="#DejaVuSans-20" transform="translate(361.824219 0)"/>
      <use xlink:href="#DejaVuSans-28" transform="translate(393.611328 0)"/>
      <use xlink:href="#DejaVuSans-3bc" transform="translate(432.625 0)"/>
      <use xlink:href="#DejaVuSans-3d" transform="translate(496.248047 0)"/>
      <use xlink:href="#DejaVuSans-31" transform="translate(580.037109 0)"/>
      <use xlink:href="#DejaVuSans-36" transform="translate(643.660156 0)"/>
      <use xlink:href="#DejaVuSans-37" transform="translate(707.283203 0)"/>
      <use xlink:href="#DejaVuSans-34" transform="translate(770.90625 0)"/>
      <use xlink:href="#DejaVuSans-38" transform="translate(834.529297 0)"/>
      <use xlink:href="#DejaVuSans-34" transform="translate(898.152344 0)"/>
      <use xlink:href="#DejaVuSans-2e" transform="translate(961.775391 0)"/>
      <use xlink:href="#DejaVuSans-33" transform="translate(993.5625 0)"/>
      <use xlink:href="#DejaVuSans-32" transform="translate(1057.185547 0)"/>
      <use xlink:href="#DejaVuSans-2c" transform="translate(1120.808594 0)"/>
      <use xlink:href="#DejaVuSans-20" transform="translate(1152.595703 0)"/>
      <use xlink:href="#DejaVuSans-3c3" transform="translate(1184.382812 0)"/>
      <use xlink:href="#DejaVuSans-3d" transform="translate(1247.761719 0)"/>
      <use xlink:href="#DejaVuSans-31" transform="translate(1331.550781 0)"/>
      <use xlink:href="#DejaVuSans-32" transform="translate(1395.173828 0)"/>
      <use xlink:href="#DejaVuSans-39" transform="translate(1458.796875 0)"/>
      <use xlink:href="#DejaVuSans-37" transform="translate(1522.419922 0)"/>
      <use xlink:href="#DejaVuSans-34" transform="translate(1586.042969 0)"/>
      <use xlink:href="#DejaVuSans-37" transform="translate(1649.666016 0)"/>
      <use xlink:href="#DejaVuSans-2e" transform="translate(1713.289062 0)"/>
      <use xlink:href="#DejaVuSans-36" transform="translate(1745.076172 0)"/>
      <use xlink:href="#DejaVuSans-36" transform="translate(1808.699219 0)"/>
      <use xlink:href="#DejaVuSans-29" transform="translate(1872.322266 0)"/>
     </g>
    </g>
    <g id="line2d_22">
     <path d="M 521.331875 68.024375 
L 529.331875 68.024375 
L 537.331875 68.024375 
" style="fill: none; stroke-dasharray: 2.96,1.28; stroke-dashoffset: 0; stroke: #008000; stroke-width: 0.8"/>
    </g>
    <g id="text_22">
     <!-- Mean = 167484.3227 -->
     <g transform="translate(543.731875 70.824375) scale(0.08 -0.08)">
      <defs>
       <path id="DejaVuSans-4d" d="M 628 4666 
L 1569 4666 
L 2759 1491 
L 3956 4666 
L 4897 4666 
L 4897 0 
L 4281 0 
L 4281 4097 
L 3078 897 
L 2444 897 
L 1241 4097 
L 1241 0 
L 628 0 
L 628 4666 
z
" transform="scale(0.015625)"/>
      </defs>
      <use xlink:href="#DejaVuSans-4d"/>
      <use xlink:href="#DejaVuSans-65" transform="translate(86.279297 0)"/>
      <use xlink:href="#DejaVuSans-61" transform="translate(147.802734 0)"/>
      <use xlink:href="#DejaVuSans-6e" transform="translate(209.082031 0)"/>
      <use xlink:href="#DejaVuSans-20" transform="translate(272.460938 0)"/>
      <use xlink:href="#DejaVuSans-3d" transform="translate(304.248047 0)"/>
      <use xlink:href="#DejaVuSans-20" transform="translate(388.037109 0)"/>
      <use xlink:href="#DejaVuSans-31" transform="translate(419.824219 0)"/>
      <use xlink:href="#DejaVuSans-36" transform="translate(483.447266 0)"/>
      <use xlink:href="#DejaVuSans-37" transform="translate(547.070312 0)"/>
      <use xlink:href="#DejaVuSans-34" transform="translate(610.693359 0)"/>
      <use xlink:href="#DejaVuSans-38" transform="translate(674.316406 0)"/>
      <use xlink:href="#DejaVuSans-34" transform="translate(737.939453 0)"/>
      <use xlink:href="#DejaVuSans-2e" transform="translate(801.5625 0)"/>
      <use xlink:href="#DejaVuSans-33" transform="translate(833.349609 0)"/>
      <use xlink:href="#DejaVuSans-32" transform="translate(896.972656 0)"/>
      <use xlink:href="#DejaVuSans-32" transform="translate(960.595703 0)"/>
      <use xlink:href="#DejaVuSans-37" transform="translate(1024.21875 0)"/>
     </g>
    </g>
    <g id="line2d_23">
     <path d="M 521.331875 79.766875 
L 529.331875 79.766875 
L 537.331875 79.766875 
" style="fill: none; stroke-dasharray: 2.59,1.12; stroke-dashoffset: 0; stroke: #ffa500; stroke-width: 0.7"/>
    </g>
    <g id="text_23">
     <!-- Mean ± 3σ -->
     <g transform="translate(543.731875 82.566875) scale(0.08 -0.08)">
      <use xlink:href="#DejaVuSans-4d"/>
      <use xlink:href="#DejaVuSans-65" transform="translate(86.279297 0)"/>
      <use xlink:href="#DejaVuSans-61" transform="translate(147.802734 0)"/>
      <use xlink:href="#DejaVuSans-6e" transform="translate(209.082031 0)"/>
      <use xlink:href="#DejaVuSans-20" transform="translate(272.460938 0)"/>
      <use xlink:href="#DejaVuSans-b1" transform="translate(304.248047 0)"/>
      <use xlink:href="#DejaVuSans-20" transform="translate(388.037109 0)"/>
      <use xlink:href="#DejaVuSans-33" transform="translate(419.824219 0)"/>
      <use xlink:href="#DejaVuSans-3c3" transform="translate(483.447266 0)"/>
     </g>
    </g>
    <g id="line2d_24">
     <path d="M 521.331875 91.509375 
L 529.331875 91.509375 
L 537.331875 91.509375 
" style="fill: none; stroke: #000000; stroke-opacity: 0; stroke-width: 1.5; stroke-linecap: square"/>
    </g>
    <g id="text_24">
     <!-- Median = 140000.0000 -->
     <g transform="translate(543.731875 94.309375) scale(0.08 -0.08)">
      <use xlink:href="#DejaVuSans-4d"/>
      <use xlink:href="#DejaVuSans-65" transform="translate(86.279297 0)"/>
      <use xlink:href="#DejaVuSans-64" transform="translate(147.802734 0)"/>
      <use xlink:href="#DejaVuSans-69" transform="translate(211.279297 0)"/>
      <use xlink:href="#DejaVuSans-61" transform="translate(239.0625 0)"/>
      <use xlink:href="#DejaVuSans-6e" transform="translate(300.341797 0)"/>
      <use xlink:href="#DejaVuSans-20" transform="translate(363.720703 0)"/>
      <use xlink:href="#DejaVuSans-3d" transform="translate(395.507812 0)"/>
      <use xlink:href="#DejaVuSans-20" transform="translate(479.296875 0)"/>
      <use xlink:href="#DejaVuSans-31" transform="translate(511.083984 0)"/>
      <use xlink:href="#DejaVuSans-34" transform="translate(574.707031 0)"/>
      <use xlink:href="#DejaVuSans-30" transform="translate(638.330078 0)"/>
      <use xlink:href="#DejaVuSans-30" transform="translate(701.953125 0)"/>
      <use xlink:href="#DejaVuSans-30" transform="translate(765.576172 0)"/>
      <use xlink:href="#DejaVuSans-30" transform="translate(829.199219 0)"/>
      <use xlink:href="#DejaVuSans-2e" transform="translate(892.822266 0)"/>
      <use xlink:href="#DejaVuSans-30" transform="translate(924.609375 0)"/>
      <use xlink:href="#DejaVuSans-30" transform="translate(988.232422 0)"/>
      <use xlink:href="#DejaVuSans-30" transform="translate(1051.855469 0)"/>
      <use xlink:href="#DejaVuSans-30" transform="translate(1115.478516 0)"/>
     </g>
    </g>
    <g id="line2d_25">
     <path d="M 521.331875 103.251875 
L 529.331875 103.251875 
L 537.331875 103.251875 
" style="fill: none; stroke: #000000; stroke-opacity: 0; stroke-width: 1.5; stroke-linecap: square"/>
    </g>
    <g id="text_25">
     <!-- Std    = 129747.6616 -->
     <g transform="translate(543.731875 106.051875) scale(0.08 -0.08)">
      <defs>
       <path id="DejaVuSans-53" d="M 3425 4513 
L 3425 3897 
Q 3066 4069 2747 4153 
Q 2428 4238 2131 4238 
Q 1616 4238 1336 4038 
Q 1056 3838 1056 3469 
Q 1056 3159 1242 3001 
Q 1428 2844 1947 2747 
L 2328 2669 
Q 3034 2534 3370 2195 
Q 3706 1856 3706 1288 
Q 3706 609 3251 259 
Q 2797 -91 1919 -91 
Q 1588 -91 1214 -16 
Q 841 59 441 206 
L 441 856 
Q 825 641 1194 531 
Q 1563 422 1919 422 
Q 2459 422 2753 634 
Q 3047 847 3047 1241 
Q 3047 1584 2836 1778 
Q 2625 1972 2144 2069 
L 1759 2144 
Q 1053 2284 737 2584 
Q 422 2884 422 3419 
Q 422 4038 858 4394 
Q 1294 4750 2059 4750 
Q 2388 4750 2728 4690 
Q 3069 4631 3425 4513 
z
" transform="scale(0.015625)"/>
      </defs>
      <use xlink:href="#DejaVuSans-53"/>
      <use xlink:href="#DejaVuSans-74" transform="translate(63.476562 0)"/>
      <use xlink:href="#DejaVuSans-64" transform="translate(102.685547 0)"/>
      <use xlink:href="#DejaVuSans-20" transform="translate(166.162109 0)"/>
      <use xlink:href="#DejaVuSans-20" transform="translate(197.949219 0)"/>
      <use xlink:href="#DejaVuSans-20" transform="translate(229.736328 0)"/>
      <use xlink:href="#DejaVuSans-20" transform="translate(261.523438 0)"/>
      <use xlink:href="#DejaVuSans-3d" transform="translate(293.310547 0)"/>
      <use xlink:href="#DejaVuSans-20" transform="translate(377.099609 0)"/>
      <use xlink:href="#DejaVuSans-31" transform="translate(408.886719 0)"/>
      <use xlink:href="#DejaVuSans-32" transform="translate(472.509766 0)"/>
      <use xlink:href="#DejaVuSans-39" transform="translate(536.132812 0)"/>
      <use xlink:href="#DejaVuSans-37" transform="translate(599.755859 0)"/>
      <use xlink:href="#DejaVuSans-34" transform="translate(663.378906 0)"/>
      <use xlink:href="#DejaVuSans-37" transform="translate(727.001953 0)"/>
      <use xlink:href="#DejaVuSans-2e" transform="translate(790.625 0)"/>
      <use xlink:href="#DejaVuSans-36" transform="translate(822.412109 0)"/>
      <use xlink:href="#DejaVuSans-36" transform="translate(886.035156 0)"/>
      <use xlink:href="#DejaVuSans-31" transform="translate(949.658203 0)"/>
      <use xlink:href="#DejaVuSans-36" transform="translate(1013.28125 0)"/>
     </g>
    </g>
   </g>
  </g>
 </g>
 <defs>
  <clipPath id="p62016f9777">
   <rect x="34.240625" y="22.318125" width="669.6" height="332.64"/>
  </clipPath>
 </defs>
</svg>
